<svg width="177" height="197" viewBox="0 0 177 197" fill="none" xmlns="http://www.w3.org/2000/svg">
<g filter="url(#filter0_d_1_298)">
<path d="M62.454 104.13L59.6341 105.35L48.3641 97.49L45.3641 99.15C42.9541 100.59 40.6141 100.69 39.4941 100.05L39.264 100.16C37.524 100.92 36.494 100.24 36.144 99.42C35.794 98.6 35.9941 97.42 37.7341 96.64L37.9641 96.54C38.174 95.54 39.0841 93.86 42.6341 92.87L45.9041 91.82L47.9041 78.23L50.7241 77L52.9141 89.59L60.9741 86.83L62.1941 83.6L64.4341 82.77L64.5941 85.77L65.394 85.7L66.1241 87.37L65.524 87.96L67.644 90.16L65.5041 91.23L62.3241 89.91L54.7941 93.91L62.454 104.13ZM62.2441 89.18L65.4441 90.51L66.4441 89.99L64.5041 87.99L65.2341 87.25L64.894 86.46L63.894 86.55L63.7441 83.75L62.6541 84.15L61.4341 87.39L52.3141 90.5L50.144 77.99L48.454 78.72L46.5041 92.36L42.8141 93.54C39.3741 94.49 38.6941 96.03 38.5941 96.86V97.07L38.394 97.14C38.267 97.1762 38.1432 97.223 38.024 97.28C36.954 97.74 36.4741 98.47 36.7841 99.17C37.0941 99.87 37.944 100.03 39.014 99.56C39.1344 99.5114 39.2514 99.4546 39.3641 99.39L39.5541 99.28L39.7341 99.41C40.4641 99.95 42.5941 100.05 45.0541 98.59L48.4141 96.71L59.7141 104.6L61.4041 103.87L53.7441 93.73L62.2441 89.18Z" fill="#999999"/>
<path d="M159.234 188.06C159.288 188.06 159.342 188.047 159.389 188.021C159.437 187.994 159.476 187.956 159.504 187.91C159.864 187.363 160.198 186.813 160.504 186.26C160.55 186.186 160.565 186.098 160.546 186.014C160.527 185.93 160.476 185.857 160.404 185.81C160.33 185.765 160.241 185.752 160.157 185.772C160.073 185.793 160 185.846 159.954 185.92C159.614 186.47 159.274 187.01 158.954 187.56C158.93 187.595 158.913 187.635 158.905 187.676C158.896 187.718 158.896 187.762 158.904 187.804C158.913 187.845 158.929 187.885 158.953 187.921C158.977 187.956 159.008 187.986 159.044 188.01C159.103 188.041 159.168 188.059 159.234 188.06ZM161.234 184.74C161.291 184.739 161.346 184.724 161.395 184.696C161.444 184.668 161.485 184.628 161.514 184.58C161.834 184.01 162.154 183.44 162.514 182.87C162.555 182.795 162.565 182.707 162.543 182.625C162.52 182.544 162.467 182.473 162.394 182.43C162.318 182.39 162.23 182.381 162.148 182.406C162.066 182.43 161.996 182.485 161.954 182.56C161.644 183.13 161.324 183.69 161.004 184.25C160.96 184.324 160.946 184.413 160.967 184.497C160.988 184.581 161.041 184.654 161.114 184.7C161.166 184.728 161.225 184.742 161.284 184.74H161.234ZM163.094 181.32C163.154 181.319 163.213 181.302 163.264 181.27C163.315 181.238 163.357 181.193 163.384 181.14C163.684 180.56 163.974 179.97 164.254 179.39C164.273 179.351 164.284 179.31 164.286 179.268C164.289 179.226 164.283 179.183 164.269 179.143C164.255 179.103 164.233 179.066 164.205 179.035C164.177 179.003 164.143 178.978 164.104 178.96C164.066 178.941 164.025 178.93 163.983 178.927C163.94 178.925 163.898 178.931 163.858 178.945C163.818 178.959 163.781 178.98 163.75 179.009C163.718 179.037 163.692 179.071 163.674 179.11C163.394 179.69 163.104 180.27 162.804 180.85C162.786 180.888 162.775 180.929 162.772 180.971C162.77 181.013 162.775 181.056 162.789 181.096C162.803 181.136 162.825 181.173 162.853 181.204C162.882 181.236 162.916 181.261 162.954 181.28C162.981 181.3 163.012 181.314 163.045 181.321C163.078 181.327 163.112 181.327 163.144 181.32H163.094ZM164.784 177.8C164.847 177.799 164.908 177.78 164.961 177.747C165.014 177.713 165.057 177.666 165.084 177.61L165.864 175.82C165.897 175.739 165.897 175.648 165.863 175.567C165.829 175.487 165.765 175.423 165.684 175.39C165.605 175.36 165.516 175.362 165.438 175.395C165.36 175.429 165.298 175.491 165.264 175.57C165.014 176.16 164.754 176.75 164.494 177.35C164.476 177.387 164.466 177.429 164.464 177.471C164.462 177.513 164.469 177.555 164.484 177.594C164.499 177.633 164.522 177.669 164.551 177.699C164.58 177.729 164.615 177.753 164.654 177.77C164.71 177.797 164.773 177.808 164.834 177.8H164.784ZM166.294 174.21C166.358 174.209 166.421 174.19 166.474 174.154C166.527 174.119 166.569 174.068 166.594 174.01C166.834 173.39 167.064 172.78 167.294 172.17C167.308 172.129 167.314 172.087 167.312 172.045C167.31 172.002 167.299 171.961 167.28 171.923C167.262 171.884 167.236 171.85 167.204 171.822C167.172 171.794 167.135 171.773 167.094 171.76C167.015 171.733 166.928 171.738 166.852 171.773C166.775 171.809 166.716 171.872 166.684 171.95C166.464 172.56 166.234 173.16 165.994 173.77C165.964 173.849 165.966 173.937 166 174.016C166.033 174.094 166.096 174.156 166.174 174.19L166.294 174.21ZM167.634 170.55C167.701 170.549 167.766 170.527 167.82 170.488C167.873 170.448 167.913 170.393 167.934 170.33C168.154 169.71 168.354 169.09 168.544 168.47C168.57 168.387 168.562 168.298 168.523 168.222C168.483 168.145 168.416 168.087 168.334 168.06C168.252 168.034 168.163 168.042 168.087 168.081C168.01 168.12 167.952 168.188 167.924 168.27C167.734 168.89 167.534 169.5 167.324 170.12C167.299 170.202 167.307 170.291 167.346 170.367C167.385 170.444 167.453 170.502 167.534 170.53L167.634 170.55ZM168.794 166.83C168.865 166.828 168.933 166.804 168.989 166.761C169.045 166.717 169.085 166.657 169.104 166.59C169.284 165.96 169.464 165.33 169.624 164.71C169.646 164.626 169.634 164.537 169.591 164.463C169.548 164.388 169.477 164.333 169.394 164.31C169.354 164.299 169.311 164.297 169.27 164.302C169.228 164.308 169.188 164.322 169.152 164.344C169.115 164.365 169.084 164.393 169.058 164.427C169.033 164.461 169.015 164.499 169.004 164.54C168.834 165.16 168.664 165.79 168.484 166.41C168.472 166.45 168.468 166.493 168.473 166.535C168.477 166.577 168.49 166.618 168.51 166.656C168.531 166.693 168.559 166.726 168.592 166.752C168.625 166.779 168.663 166.798 168.704 166.81L168.794 166.83ZM169.794 163.06C169.866 163.057 169.935 163.032 169.991 162.987C170.047 162.941 170.087 162.879 170.104 162.81C170.254 162.17 170.404 161.53 170.534 160.9C170.545 160.859 170.546 160.816 170.54 160.775C170.533 160.733 170.518 160.694 170.496 160.658C170.473 160.622 170.444 160.592 170.409 160.568C170.375 160.544 170.336 160.528 170.294 160.52C170.253 160.509 170.21 160.507 170.168 160.514C170.126 160.52 170.085 160.535 170.049 160.557C170.012 160.58 169.981 160.609 169.956 160.644C169.931 160.679 169.914 160.718 169.904 160.76C169.774 161.39 169.624 162.02 169.474 162.66C169.456 162.743 169.471 162.83 169.516 162.903C169.56 162.976 169.632 163.028 169.714 163.05L169.794 163.06ZM170.614 159.24C170.69 159.241 170.763 159.216 170.822 159.168C170.88 159.12 170.92 159.054 170.934 158.98C171.054 158.34 171.174 157.7 171.284 157.06C171.299 156.976 171.28 156.89 171.231 156.821C171.182 156.751 171.108 156.704 171.024 156.69C170.982 156.681 170.939 156.681 170.897 156.689C170.855 156.698 170.815 156.715 170.779 156.739C170.744 156.763 170.713 156.794 170.69 156.83C170.667 156.867 170.651 156.907 170.644 156.95C170.534 157.58 170.424 158.22 170.294 158.86C170.286 158.902 170.285 158.945 170.294 158.987C170.302 159.029 170.319 159.069 170.344 159.105C170.368 159.14 170.399 159.17 170.435 159.194C170.471 159.217 170.512 159.232 170.554 159.24H170.614ZM171.274 155.4C171.352 155.403 171.427 155.377 171.487 155.327C171.546 155.277 171.584 155.206 171.594 155.13C171.694 154.48 171.784 153.83 171.864 153.19C171.87 153.147 171.867 153.105 171.856 153.064C171.845 153.023 171.826 152.984 171.8 152.951C171.774 152.917 171.741 152.889 171.704 152.869C171.667 152.848 171.626 152.834 171.584 152.83C171.542 152.822 171.499 152.824 171.457 152.835C171.416 152.845 171.377 152.864 171.343 152.891C171.309 152.917 171.281 152.95 171.261 152.988C171.24 153.025 171.228 153.067 171.224 153.11C171.144 153.736 171.054 154.376 170.954 155.03C170.943 155.114 170.964 155.2 171.015 155.269C171.065 155.338 171.14 155.385 171.224 155.4H171.274ZM171.764 151.53C171.845 151.532 171.923 151.504 171.983 151.449C172.043 151.395 172.079 151.32 172.084 151.24C172.154 150.59 172.224 149.94 172.274 149.3C172.28 149.214 172.252 149.129 172.196 149.063C172.139 148.998 172.06 148.957 171.974 148.95C171.932 148.944 171.89 148.947 171.85 148.959C171.809 148.971 171.772 148.991 171.74 149.019C171.707 149.046 171.681 149.08 171.663 149.118C171.645 149.156 171.635 149.197 171.634 149.24C171.574 149.88 171.514 150.53 171.444 151.18C171.44 151.222 171.444 151.264 171.457 151.304C171.469 151.345 171.489 151.382 171.516 151.415C171.543 151.448 171.576 151.474 171.614 151.494C171.651 151.514 171.692 151.526 171.734 151.53H171.764ZM172.094 147.65C172.176 147.65 172.254 147.619 172.314 147.563C172.373 147.507 172.409 147.431 172.414 147.35C172.414 146.68 172.494 146.03 172.514 145.35C172.517 145.307 172.511 145.264 172.497 145.223C172.483 145.183 172.46 145.146 172.431 145.114C172.402 145.082 172.367 145.056 172.328 145.039C172.289 145.021 172.247 145.011 172.204 145.01C172.12 145.013 172.04 145.047 171.978 145.103C171.916 145.16 171.876 145.236 171.864 145.32C171.864 145.96 171.864 146.61 171.774 147.26C171.769 147.345 171.797 147.43 171.853 147.496C171.909 147.561 171.989 147.602 172.074 147.61L172.094 147.65ZM172.244 143.75C172.329 143.75 172.411 143.716 172.471 143.656C172.531 143.596 172.564 143.514 172.564 143.43C172.564 142.97 172.564 142.52 172.564 142.07V141.48C172.564 141.395 172.531 141.313 172.471 141.253C172.411 141.193 172.329 141.16 172.244 141.16C172.159 141.16 172.078 141.193 172.018 141.253C171.958 141.313 171.924 141.395 171.924 141.48V142.07C171.924 142.52 171.924 142.97 171.924 143.42C171.923 143.462 171.93 143.505 171.946 143.545C171.961 143.585 171.985 143.622 172.014 143.652C172.044 143.683 172.08 143.708 172.119 143.724C172.159 143.741 172.201 143.75 172.244 143.75ZM172.244 139.85C172.287 139.85 172.33 139.841 172.369 139.824C172.409 139.808 172.444 139.783 172.474 139.752C172.504 139.722 172.527 139.685 172.543 139.645C172.558 139.605 172.566 139.562 172.564 139.52C172.564 138.85 172.504 138.2 172.474 137.52C172.467 137.434 172.426 137.354 172.36 137.298C172.295 137.242 172.21 137.214 172.124 137.22C172.082 137.222 172.041 137.233 172.003 137.251C171.965 137.27 171.932 137.296 171.904 137.327C171.876 137.359 171.854 137.396 171.841 137.435C171.827 137.475 171.822 137.517 171.824 137.56C171.824 138.19 171.894 138.84 171.914 139.5C171.91 139.547 171.915 139.594 171.931 139.639C171.947 139.683 171.973 139.724 172.006 139.757C172.04 139.791 172.08 139.816 172.125 139.832C172.17 139.848 172.217 139.854 172.264 139.85H172.244ZM172.014 135.96C172.056 135.956 172.097 135.944 172.135 135.924C172.172 135.904 172.205 135.878 172.232 135.845C172.259 135.812 172.279 135.775 172.292 135.734C172.304 135.694 172.308 135.652 172.304 135.61C172.244 134.943 172.174 134.276 172.094 133.61C172.091 133.567 172.078 133.525 172.058 133.488C172.038 133.45 172.01 133.417 171.976 133.391C171.942 133.364 171.903 133.345 171.861 133.335C171.82 133.324 171.777 133.322 171.734 133.33C171.65 133.342 171.574 133.386 171.522 133.453C171.47 133.52 171.446 133.605 171.454 133.69C171.534 134.3 171.604 134.95 171.664 135.62C171.66 135.669 171.668 135.718 171.686 135.764C171.704 135.81 171.733 135.851 171.77 135.884C171.807 135.917 171.851 135.941 171.898 135.954C171.946 135.967 171.996 135.969 172.044 135.96H172.014ZM171.534 132.09C171.618 132.075 171.692 132.028 171.741 131.958C171.79 131.889 171.809 131.803 171.794 131.72L171.734 131.33C171.644 130.82 171.544 130.33 171.444 129.79C171.436 129.748 171.419 129.709 171.396 129.674C171.372 129.639 171.342 129.609 171.306 129.585C171.271 129.562 171.231 129.546 171.19 129.538C171.148 129.53 171.106 129.531 171.064 129.54C171.022 129.547 170.982 129.562 170.946 129.586C170.91 129.609 170.88 129.639 170.856 129.675C170.833 129.711 170.817 129.751 170.81 129.793C170.802 129.835 170.804 129.878 170.814 129.92C170.914 130.43 171.004 130.92 171.094 131.44L171.164 131.82C171.169 131.865 171.183 131.908 171.205 131.947C171.228 131.986 171.259 132.02 171.296 132.045C171.334 132.071 171.376 132.088 171.42 132.096C171.465 132.104 171.511 132.101 171.554 132.09H171.534ZM170.764 128.27H170.834C170.875 128.261 170.915 128.245 170.949 128.221C170.984 128.197 171.013 128.167 171.036 128.131C171.058 128.095 171.073 128.056 171.08 128.014C171.086 127.973 171.085 127.93 171.074 127.89C170.924 127.25 170.774 126.62 170.604 125.98C170.593 125.939 170.573 125.9 170.547 125.867C170.52 125.834 170.488 125.806 170.45 125.786C170.413 125.765 170.372 125.752 170.33 125.748C170.288 125.743 170.245 125.747 170.204 125.76C170.164 125.77 170.125 125.788 170.092 125.814C170.058 125.839 170.03 125.871 170.008 125.907C169.987 125.943 169.973 125.983 169.967 126.025C169.961 126.066 169.964 126.109 169.974 126.15C170.144 126.78 170.304 127.4 170.444 128.03C170.465 128.102 170.51 128.166 170.572 128.21C170.634 128.254 170.709 128.275 170.784 128.27H170.764ZM169.764 124.51H169.854C169.895 124.498 169.933 124.479 169.967 124.452C170 124.426 170.028 124.393 170.048 124.356C170.069 124.318 170.081 124.277 170.086 124.235C170.09 124.193 170.087 124.15 170.074 124.11C169.884 123.48 169.684 122.86 169.474 122.24C169.461 122.199 169.439 122.162 169.411 122.13C169.383 122.098 169.349 122.072 169.311 122.054C169.273 122.035 169.232 122.024 169.189 122.022C169.147 122.019 169.104 122.025 169.064 122.04C169.024 122.053 168.987 122.074 168.955 122.102C168.923 122.13 168.897 122.164 168.878 122.203C168.86 122.241 168.849 122.282 168.847 122.325C168.844 122.367 168.85 122.409 168.864 122.45C169.074 123.06 169.264 123.68 169.454 124.3C169.478 124.364 169.522 124.42 169.579 124.458C169.637 124.495 169.705 124.514 169.774 124.51H169.764ZM168.514 120.81C168.55 120.819 168.588 120.819 168.624 120.81C168.704 120.78 168.768 120.721 168.804 120.644C168.84 120.567 168.843 120.479 168.814 120.4C168.584 119.79 168.344 119.18 168.084 118.58C168.069 118.54 168.046 118.504 168.016 118.473C167.987 118.443 167.951 118.418 167.912 118.401C167.873 118.385 167.831 118.376 167.788 118.375C167.746 118.375 167.704 118.383 167.664 118.4C167.625 118.416 167.59 118.44 167.561 118.47C167.531 118.5 167.508 118.535 167.492 118.574C167.476 118.613 167.468 118.655 167.469 118.697C167.469 118.739 167.478 118.781 167.494 118.82C167.744 119.42 167.984 120.02 168.204 120.63C168.234 120.688 168.28 120.736 168.337 120.768C168.394 120.8 168.459 120.815 168.524 120.81H168.514ZM167.044 117.27C167.09 117.279 167.138 117.279 167.184 117.27C167.262 117.233 167.321 117.167 167.351 117.087C167.381 117.007 167.379 116.918 167.344 116.84C167.064 116.25 166.784 115.66 166.484 115.07C166.444 114.996 166.377 114.94 166.297 114.914C166.217 114.888 166.13 114.894 166.054 114.93C165.976 114.968 165.917 115.036 165.889 115.119C165.861 115.201 165.866 115.291 165.904 115.37C166.204 115.94 166.484 116.52 166.754 117.11C166.783 117.161 166.825 117.203 166.876 117.232C166.927 117.26 166.986 117.273 167.044 117.27ZM165.284 113.79C165.333 113.803 165.385 113.803 165.434 113.79C165.472 113.77 165.506 113.742 165.533 113.709C165.56 113.676 165.58 113.638 165.592 113.597C165.604 113.556 165.608 113.513 165.603 113.47C165.599 113.428 165.585 113.387 165.564 113.35C165.244 112.78 164.914 112.21 164.564 111.66C164.544 111.622 164.516 111.59 164.482 111.564C164.448 111.538 164.409 111.519 164.368 111.509C164.327 111.499 164.284 111.497 164.242 111.504C164.2 111.511 164.16 111.526 164.124 111.55C164.088 111.571 164.057 111.6 164.031 111.633C164.006 111.667 163.988 111.706 163.978 111.747C163.968 111.788 163.966 111.83 163.972 111.872C163.978 111.913 163.992 111.953 164.014 111.99C164.354 112.54 164.674 113.1 165.014 113.67C165.047 113.697 165.086 113.718 165.127 113.73C165.168 113.742 165.212 113.745 165.254 113.74L165.284 113.79ZM163.284 110.46C163.343 110.477 163.406 110.477 163.464 110.46C163.5 110.436 163.531 110.406 163.555 110.371C163.579 110.335 163.596 110.295 163.604 110.254C163.613 110.212 163.613 110.168 163.604 110.126C163.595 110.085 163.579 110.045 163.554 110.01C163.184 109.47 162.814 108.93 162.424 108.4C162.373 108.332 162.297 108.287 162.213 108.274C162.129 108.261 162.044 108.281 161.974 108.33C161.907 108.381 161.862 108.457 161.849 108.541C161.836 108.624 161.856 108.71 161.904 108.78C162.284 109.3 162.654 109.83 163.014 110.37C163.078 110.407 163.152 110.421 163.224 110.41L163.284 110.46ZM119.284 108.25H119.694C119.736 108.247 119.777 108.236 119.815 108.218C119.853 108.199 119.887 108.173 119.915 108.142C119.943 108.11 119.964 108.073 119.978 108.034C119.991 107.994 119.997 107.952 119.994 107.91C119.993 107.867 119.983 107.825 119.965 107.787C119.947 107.748 119.921 107.714 119.889 107.686C119.858 107.657 119.82 107.636 119.78 107.623C119.739 107.61 119.697 107.605 119.654 107.61C119.272 107.645 118.887 107.645 118.504 107.61C118.275 107.581 118.048 107.537 117.824 107.48C117.741 107.458 117.652 107.47 117.577 107.513C117.503 107.556 117.448 107.627 117.424 107.71C117.414 107.751 117.412 107.794 117.418 107.836C117.425 107.878 117.44 107.919 117.462 107.955C117.484 107.991 117.514 108.023 117.549 108.048C117.583 108.073 117.623 108.09 117.664 108.1C117.917 108.17 118.174 108.22 118.434 108.25C118.682 108.245 118.929 108.228 119.174 108.2L119.284 108.25ZM121.584 107.86H121.684C122.334 107.631 122.939 107.293 123.474 106.86C123.534 106.798 123.568 106.715 123.568 106.63C123.568 106.544 123.534 106.461 123.474 106.4C123.444 106.369 123.409 106.344 123.369 106.327C123.33 106.311 123.287 106.302 123.244 106.302C123.201 106.302 123.159 106.311 123.119 106.327C123.08 106.344 123.044 106.369 123.014 106.4C122.536 106.781 121.999 107.082 121.424 107.29C121.384 107.303 121.347 107.324 121.315 107.352C121.283 107.38 121.257 107.414 121.238 107.453C121.22 107.491 121.209 107.532 121.207 107.575C121.204 107.617 121.21 107.659 121.224 107.7C121.256 107.735 121.294 107.763 121.337 107.782C121.38 107.801 121.427 107.81 121.474 107.81L121.584 107.86ZM161.034 107.32C161.107 107.32 161.178 107.296 161.234 107.25C161.294 107.188 161.328 107.105 161.328 107.02C161.328 106.934 161.294 106.851 161.234 106.79C160.824 106.28 160.394 105.79 159.974 105.29C159.913 105.23 159.83 105.196 159.744 105.196C159.658 105.196 159.576 105.23 159.514 105.29C159.454 105.351 159.421 105.434 159.421 105.52C159.421 105.605 159.454 105.688 159.514 105.75C159.934 106.23 160.354 106.75 160.754 107.23C160.807 107.257 160.865 107.271 160.924 107.27L161.034 107.32ZM115.974 107.27C116.027 107.268 116.079 107.255 116.125 107.23C116.172 107.206 116.213 107.172 116.244 107.13C116.29 107.056 116.305 106.968 116.286 106.884C116.267 106.8 116.216 106.727 116.144 106.68C115.628 106.337 115.161 105.927 114.754 105.46C114.694 105.4 114.614 105.367 114.529 105.367C114.445 105.367 114.364 105.4 114.304 105.46C114.244 105.521 114.211 105.604 114.211 105.69C114.211 105.775 114.244 105.858 114.304 105.92C114.748 106.437 115.263 106.888 115.834 107.26C115.844 107.263 115.854 107.267 115.864 107.27H115.974ZM124.504 105.42C124.562 105.418 124.618 105.402 124.667 105.372C124.716 105.342 124.756 105.3 124.784 105.25C125.114 104.627 125.328 103.949 125.414 103.25C125.42 103.207 125.417 103.165 125.406 103.124C125.395 103.083 125.376 103.044 125.35 103.011C125.324 102.977 125.291 102.949 125.254 102.929C125.217 102.908 125.176 102.894 125.134 102.89C125.051 102.878 124.966 102.9 124.899 102.951C124.831 103.001 124.787 103.076 124.774 103.16C124.691 103.767 124.505 104.355 124.224 104.9C124.203 104.937 124.19 104.978 124.185 105.02C124.18 105.063 124.184 105.106 124.196 105.147C124.208 105.188 124.229 105.226 124.256 105.259C124.283 105.292 124.316 105.32 124.354 105.34C124.367 105.35 124.38 105.36 124.394 105.37L124.504 105.42ZM158.454 104.42C158.54 104.42 158.622 104.388 158.684 104.33C158.744 104.268 158.778 104.185 158.778 104.1C158.778 104.014 158.744 103.931 158.684 103.87C158.224 103.4 157.754 102.94 157.284 102.49C157.223 102.43 157.14 102.396 157.054 102.396C156.968 102.396 156.886 102.43 156.824 102.49C156.765 102.549 156.732 102.63 156.732 102.715C156.732 102.799 156.765 102.88 156.824 102.94C157.284 103.38 157.744 103.84 158.194 104.3C158.24 104.326 158.292 104.34 158.344 104.34L158.454 104.42ZM113.454 104.42C113.504 104.429 113.555 104.429 113.604 104.42C113.679 104.377 113.734 104.309 113.76 104.227C113.786 104.145 113.781 104.057 113.744 103.98C113.463 103.423 113.258 102.831 113.134 102.22C113.125 102.178 113.107 102.139 113.082 102.104C113.058 102.069 113.026 102.04 112.99 102.017C112.953 101.995 112.913 101.98 112.871 101.974C112.829 101.967 112.786 101.969 112.744 101.98C112.703 101.988 112.663 102.004 112.628 102.028C112.593 102.052 112.563 102.082 112.54 102.117C112.517 102.153 112.501 102.192 112.493 102.234C112.485 102.275 112.486 102.318 112.494 102.36C112.639 103.021 112.864 103.662 113.164 104.27C113.212 104.3 113.268 104.317 113.324 104.32L113.454 104.42ZM155.644 101.77C155.69 101.769 155.735 101.759 155.776 101.74C155.818 101.721 155.854 101.694 155.884 101.66C155.944 101.598 155.978 101.515 155.978 101.43C155.978 101.344 155.944 101.261 155.884 101.2L155.284 100.7L154.354 99.9695C154.285 99.917 154.198 99.8938 154.112 99.9051C154.026 99.9163 153.948 99.961 153.894 100.03C153.845 100.098 153.823 100.183 153.835 100.266C153.846 100.35 153.889 100.426 153.954 100.48L154.874 101.2L155.464 101.7C155.482 101.691 155.499 101.681 155.514 101.67L155.644 101.77ZM125.124 101.68C125.21 101.669 125.289 101.626 125.343 101.559C125.397 101.491 125.423 101.406 125.414 101.32C125.338 100.641 125.197 99.9714 124.994 99.3195C124.983 99.2786 124.963 99.2404 124.937 99.2071C124.91 99.1738 124.878 99.1462 124.84 99.1257C124.803 99.1052 124.762 99.0923 124.72 99.0878C124.678 99.0833 124.635 99.0873 124.594 99.0995C124.553 99.1108 124.515 99.1304 124.483 99.157C124.45 99.1836 124.422 99.2166 124.403 99.2541C124.383 99.2916 124.371 99.3327 124.368 99.3749C124.365 99.4171 124.37 99.4595 124.384 99.4995C124.566 100.104 124.696 100.723 124.774 101.35C124.788 101.404 124.815 101.453 124.854 101.494C124.892 101.534 124.941 101.564 124.994 101.58L125.124 101.68ZM112.674 100.68C112.756 100.68 112.834 100.649 112.894 100.593C112.953 100.537 112.989 100.461 112.994 100.38C113.04 99.7646 113.182 99.1607 113.414 98.5895C113.431 98.5508 113.439 98.5092 113.44 98.4671C113.44 98.425 113.432 98.3833 113.416 98.3443C113.401 98.3053 113.377 98.2697 113.348 98.2397C113.318 98.2098 113.283 98.1859 113.244 98.1695C113.206 98.1531 113.164 98.1444 113.122 98.144C113.08 98.1437 113.038 98.1516 112.999 98.1674C112.96 98.1832 112.924 98.2065 112.894 98.2361C112.865 98.2656 112.841 98.3008 112.824 98.3395C112.559 98.976 112.4 99.6516 112.354 100.34C112.35 100.382 112.355 100.426 112.368 100.467C112.381 100.508 112.402 100.546 112.43 100.578C112.458 100.611 112.492 100.638 112.531 100.657C112.569 100.676 112.611 100.687 112.654 100.69L112.674 100.68ZM152.414 99.2695C152.467 99.2704 152.52 99.2581 152.567 99.2337C152.614 99.2092 152.654 99.1734 152.684 99.1295C152.732 99.0587 152.75 98.9723 152.735 98.8884C152.72 98.8046 152.673 98.7297 152.604 98.6795C152.064 98.3095 151.504 97.9495 150.954 97.6095C150.88 97.5651 150.791 97.5517 150.707 97.5723C150.623 97.5929 150.55 97.6458 150.504 97.7195C150.483 97.7556 150.468 97.7956 150.462 97.8373C150.456 97.879 150.458 97.9215 150.468 97.9624C150.478 98.0033 150.496 98.0417 150.521 98.0756C150.547 98.1094 150.578 98.1379 150.614 98.1595C151.161 98.4995 151.701 98.8495 152.234 99.2095C152.287 99.2473 152.35 99.2682 152.414 99.2695ZM123.914 97.8195C123.957 97.8297 124.002 97.8297 124.044 97.8195C124.123 97.7844 124.185 97.7197 124.217 97.6393C124.249 97.5589 124.248 97.4692 124.214 97.3895C123.964 96.8195 123.674 96.2195 123.344 95.6195C123.324 95.5817 123.297 95.5482 123.264 95.5211C123.231 95.4939 123.193 95.4737 123.152 95.4616C123.111 95.4495 123.068 95.4457 123.025 95.4505C122.983 95.4553 122.942 95.4686 122.904 95.4895C122.83 95.5317 122.775 95.6012 122.75 95.6833C122.726 95.7654 122.735 95.8537 122.774 95.9295C123.094 96.5095 123.384 97.0895 123.624 97.6495C123.648 97.7076 123.688 97.7575 123.739 97.793C123.791 97.8286 123.852 97.8482 123.914 97.8495V97.8195ZM149.044 97.2695C149.104 97.2709 149.162 97.2557 149.213 97.2257C149.265 97.1957 149.306 97.152 149.334 97.0995C149.374 97.0236 149.382 96.9353 149.358 96.8532C149.334 96.7711 149.279 96.7017 149.204 96.6595C148.634 96.3495 148.044 96.0495 147.454 95.7595C147.416 95.7409 147.375 95.7299 147.333 95.7274C147.29 95.7248 147.248 95.7307 147.208 95.7447C147.168 95.7586 147.131 95.7804 147.1 95.8087C147.068 95.837 147.042 95.8713 147.024 95.9095C147.006 95.9476 146.995 95.9889 146.992 96.0312C146.99 96.0735 146.995 96.1159 147.009 96.1559C147.023 96.1959 147.045 96.2327 147.073 96.2642C147.102 96.2957 147.136 96.3214 147.174 96.3395C147.754 96.6195 148.334 96.9195 148.894 97.2295C148.939 97.2567 148.992 97.2706 149.044 97.2695ZM113.964 97.0195C114.012 97.0189 114.059 97.0078 114.103 96.9871C114.146 96.9663 114.184 96.9365 114.214 96.8995C114.619 96.4266 115.075 96.0005 115.574 95.6295C115.61 95.6057 115.64 95.5747 115.663 95.5386C115.686 95.5025 115.701 95.4621 115.708 95.4199C115.714 95.3776 115.712 95.3344 115.701 95.2931C115.69 95.2517 115.671 95.213 115.644 95.1795C115.62 95.144 115.589 95.1138 115.553 95.0909C115.517 95.0679 115.477 95.0527 115.435 95.0461C115.392 95.0395 115.349 95.0418 115.308 95.0527C115.266 95.0636 115.228 95.0829 115.194 95.1095C114.65 95.5117 114.153 95.9747 113.714 96.4895C113.657 96.5506 113.626 96.631 113.626 96.7145C113.626 96.798 113.657 96.8785 113.714 96.9395C113.758 96.9789 113.812 97.0061 113.87 97.0183C113.928 97.0306 113.988 97.0276 114.044 97.0095L113.964 97.0195ZM145.544 95.5695C145.608 95.5665 145.669 95.5464 145.722 95.5111C145.775 95.4759 145.817 95.427 145.844 95.3695C145.861 95.3308 145.869 95.2892 145.87 95.2471C145.87 95.205 145.862 95.1633 145.846 95.1243C145.831 95.0853 145.807 95.0497 145.778 95.0197C145.748 94.9898 145.713 94.9659 145.674 94.9495C145.064 94.6895 144.454 94.4495 143.844 94.2195C143.763 94.1901 143.674 94.1935 143.596 94.229C143.517 94.2645 143.456 94.3293 143.424 94.4095C143.395 94.4918 143.4 94.5821 143.438 94.6608C143.475 94.7395 143.542 94.8001 143.624 94.8295C144.224 95.0495 144.824 95.2895 145.414 95.5395C145.471 95.564 145.534 95.5709 145.594 95.5595L145.544 95.5695ZM117.054 94.6895C117.1 94.7041 117.149 94.7041 117.194 94.6895C117.767 94.4134 118.354 94.1697 118.954 93.9595C118.995 93.946 119.032 93.9247 119.064 93.8967C119.096 93.8687 119.122 93.8346 119.14 93.7964C119.159 93.7583 119.17 93.7168 119.172 93.6744C119.174 93.632 119.168 93.5896 119.154 93.5495C119.141 93.5093 119.119 93.4721 119.091 93.4402C119.063 93.4083 119.029 93.3823 118.991 93.3636C118.953 93.345 118.912 93.3342 118.869 93.3318C118.827 93.3294 118.784 93.3354 118.744 93.3495C118.117 93.5679 117.503 93.8216 116.904 94.1095C116.828 94.15 116.771 94.2187 116.745 94.301C116.718 94.3832 116.725 94.4724 116.764 94.5495C116.801 94.6032 116.853 94.6443 116.914 94.6676C116.975 94.6908 117.041 94.695 117.104 94.6795L117.054 94.6895ZM122.054 94.4195C122.115 94.4233 122.175 94.4056 122.224 94.3695C122.261 94.3481 122.292 94.3194 122.317 94.2853C122.342 94.2512 122.36 94.2123 122.369 94.1711C122.379 94.1299 122.379 94.0872 122.372 94.0457C122.364 94.0041 122.348 93.9646 122.324 93.9295C122.164 93.6695 121.994 93.4195 121.824 93.1495L122.714 92.9695C122.798 92.9549 122.872 92.9077 122.921 92.8383C122.97 92.7689 122.989 92.6831 122.974 92.5995C122.967 92.5572 122.951 92.5167 122.928 92.4805C122.905 92.4443 122.875 92.4131 122.839 92.3889C122.804 92.3646 122.764 92.3477 122.722 92.3393C122.68 92.3308 122.636 92.3309 122.594 92.3395C122.204 92.4095 121.814 92.4895 121.434 92.5795L121.234 92.2995C121.21 92.2644 121.179 92.2344 121.144 92.2113C121.108 92.1882 121.068 92.1725 121.026 92.165C120.984 92.1576 120.941 92.1585 120.9 92.1679C120.858 92.1773 120.819 92.1948 120.784 92.2195C120.749 92.2436 120.719 92.2743 120.696 92.3101C120.673 92.3458 120.657 92.3858 120.65 92.4277C120.642 92.4696 120.643 92.5126 120.653 92.5541C120.662 92.5956 120.68 92.6349 120.704 92.6695L120.754 92.7395H120.674C120.591 92.763 120.519 92.8175 120.475 92.8919C120.43 92.9662 120.416 93.0548 120.434 93.1395C120.46 93.2211 120.515 93.2901 120.589 93.3328C120.663 93.3754 120.751 93.3885 120.834 93.3695L121.144 93.2995C121.374 93.6195 121.584 93.9495 121.784 94.2995C121.816 94.3371 121.856 94.3667 121.901 94.3858C121.946 94.405 121.995 94.4131 122.044 94.4095L122.054 94.4195ZM141.914 94.2095C141.983 94.2125 142.051 94.1925 142.107 94.1526C142.163 94.1128 142.204 94.0554 142.224 93.9895C142.25 93.9073 142.242 93.8184 142.203 93.7418C142.163 93.6652 142.096 93.607 142.014 93.5795C141.394 93.3895 140.754 93.1995 140.124 93.0395C140.084 93.0275 140.041 93.0241 139.999 93.0293C139.957 93.0345 139.916 93.0484 139.879 93.0699C139.843 93.0915 139.811 93.1203 139.786 93.1547C139.761 93.189 139.744 93.2281 139.734 93.2695C139.724 93.3102 139.721 93.3526 139.727 93.3943C139.733 93.4359 139.747 93.476 139.768 93.5122C139.79 93.5484 139.818 93.5801 139.852 93.6053C139.885 93.6306 139.924 93.6491 139.964 93.6595C140.584 93.8195 141.204 94.0095 141.824 94.1995L141.914 94.2095ZM138.154 93.2095C138.229 93.2105 138.301 93.1848 138.358 93.1371C138.414 93.0894 138.452 93.0228 138.464 92.9495C138.473 92.9081 138.474 92.8654 138.466 92.8239C138.458 92.7823 138.442 92.7427 138.419 92.7074C138.395 92.672 138.365 92.6417 138.33 92.618C138.295 92.5944 138.256 92.5779 138.214 92.5695C137.574 92.4295 136.924 92.3095 136.284 92.2095C136.201 92.195 136.115 92.2142 136.045 92.263C135.976 92.3117 135.929 92.386 135.914 92.4695C135.906 92.5118 135.906 92.5553 135.915 92.5974C135.924 92.6396 135.942 92.6793 135.968 92.7141C135.993 92.7489 136.025 92.7781 136.063 92.7997C136.1 92.8212 136.141 92.8348 136.184 92.8395C136.814 92.9495 137.454 93.0695 138.084 93.1995L138.154 93.2095ZM124.584 92.6595C125.214 92.5695 125.864 92.4995 126.504 92.4495C126.59 92.4419 126.669 92.401 126.725 92.3356C126.782 92.2702 126.81 92.1855 126.804 92.0995C126.801 92.0574 126.788 92.0165 126.769 91.9791C126.749 91.9417 126.722 91.9086 126.69 91.8816C126.657 91.8546 126.62 91.8344 126.579 91.822C126.539 91.8097 126.496 91.8054 126.454 91.8095C125.804 91.8095 125.144 91.9295 124.454 92.0195C124.412 92.0244 124.372 92.0377 124.336 92.0587C124.299 92.0796 124.267 92.1078 124.242 92.1415C124.217 92.1752 124.198 92.2136 124.189 92.2546C124.179 92.2955 124.177 92.338 124.184 92.3795C124.188 92.4281 124.203 92.4751 124.227 92.5172C124.252 92.5592 124.285 92.5951 124.326 92.6221C124.366 92.6491 124.413 92.6665 124.461 92.673C124.509 92.6795 124.558 92.6749 124.604 92.6595H124.584ZM134.304 92.5795C134.384 92.5799 134.461 92.5503 134.521 92.4966C134.58 92.443 134.617 92.3691 134.624 92.2895C134.633 92.2061 134.608 92.1228 134.556 92.0573C134.503 91.9919 134.427 91.9496 134.344 91.9395C133.694 91.8595 133.034 91.7995 132.344 91.7595C132.302 91.7568 132.26 91.7624 132.22 91.7761C132.18 91.7897 132.144 91.8111 132.112 91.8389C132.08 91.8668 132.055 91.9006 132.036 91.9385C132.018 91.9763 132.007 92.0175 132.004 92.0595C132 92.1019 132.005 92.1446 132.018 92.1851C132.031 92.2255 132.052 92.2628 132.08 92.2947C132.108 92.3266 132.143 92.3524 132.181 92.3704C132.22 92.3884 132.262 92.3984 132.304 92.3995C132.944 92.4495 133.594 92.4995 134.224 92.5795H134.304ZM128.464 92.3395C129.114 92.3395 129.754 92.3395 130.404 92.3395C130.446 92.3409 130.487 92.3339 130.526 92.3189C130.565 92.3039 130.6 92.2813 130.63 92.2523C130.66 92.2234 130.684 92.1888 130.7 92.1505C130.716 92.1122 130.724 92.0711 130.724 92.0295C130.726 91.9875 130.719 91.9456 130.704 91.9063C130.689 91.8669 130.666 91.8309 130.638 91.8003C130.609 91.7696 130.574 91.7449 130.536 91.7277C130.498 91.7104 130.456 91.7008 130.414 91.6995C129.754 91.6995 129.104 91.6995 128.414 91.6995C128.371 91.7008 128.329 91.7107 128.29 91.7286C128.251 91.7465 128.216 91.7721 128.187 91.8038C128.158 91.8355 128.136 91.8727 128.122 91.9132C128.108 91.9537 128.102 91.9967 128.104 92.0395C128.106 92.0854 128.118 92.1303 128.139 92.1712C128.16 92.2121 128.19 92.248 128.226 92.2764C128.262 92.3049 128.303 92.3253 128.348 92.3362C128.393 92.347 128.439 92.3482 128.484 92.3395H128.464ZM119.814 91.2295C119.887 91.2304 119.958 91.2056 120.014 91.1595C120.073 91.0996 120.107 91.0188 120.107 90.9345C120.107 90.8503 120.073 90.7694 120.014 90.7095C119.614 90.1895 119.194 89.7095 118.774 89.1795C118.714 89.1203 118.634 89.0871 118.549 89.0871C118.465 89.0871 118.384 89.1203 118.324 89.1795C118.264 89.2411 118.231 89.3237 118.231 89.4095C118.231 89.4954 118.264 89.5779 118.324 89.6395C118.734 90.1195 119.154 90.6395 119.544 91.1295C119.576 91.1764 119.619 91.2141 119.67 91.2387C119.721 91.2633 119.778 91.2739 119.834 91.2695L119.814 91.2295ZM117.274 88.2295C117.315 88.2297 117.356 88.2219 117.393 88.2065C117.431 88.191 117.465 88.1683 117.494 88.1395C117.525 88.1106 117.549 88.0757 117.566 88.037C117.582 87.9983 117.591 87.9566 117.591 87.9145C117.591 87.8724 117.582 87.8308 117.566 87.7921C117.549 87.7534 117.525 87.7185 117.494 87.6895C117.044 87.2095 116.574 86.7495 116.094 86.3095C116.065 86.279 116.03 86.2546 115.992 86.238C115.953 86.2214 115.911 86.2128 115.869 86.2128C115.827 86.2128 115.785 86.2214 115.747 86.238C115.708 86.2546 115.673 86.279 115.644 86.3095C115.613 86.3394 115.589 86.3751 115.572 86.4146C115.555 86.4541 115.547 86.4966 115.547 86.5395C115.547 86.5824 115.555 86.6249 115.572 86.6644C115.589 86.7039 115.613 86.7397 115.644 86.7695C116.114 87.1995 116.574 87.6595 117.024 88.1195C117.051 88.1674 117.09 88.2069 117.138 88.2335C117.185 88.26 117.24 88.2725 117.294 88.2695L117.274 88.2295ZM114.424 85.5795C114.519 85.5771 114.609 85.5376 114.674 85.4695C114.734 85.4079 114.768 85.3254 114.768 85.2395C114.768 85.1536 114.734 85.0711 114.674 85.0095C114.164 84.5895 113.674 84.1895 113.114 83.8095C113.08 83.7848 113.04 83.7673 112.999 83.7579C112.957 83.7485 112.914 83.7476 112.872 83.755C112.831 83.7625 112.791 83.7782 112.755 83.8013C112.719 83.8244 112.688 83.8544 112.664 83.8895C112.639 83.9236 112.621 83.9623 112.611 84.0034C112.601 84.0446 112.599 84.0873 112.605 84.1292C112.612 84.171 112.626 84.2112 112.649 84.2473C112.671 84.2834 112.7 84.3148 112.734 84.3395C113.254 84.7129 113.764 85.1029 114.264 85.5095C114.31 85.5661 114.373 85.605 114.444 85.6195L114.424 85.5795ZM111.254 83.3195C111.308 83.3193 111.361 83.3055 111.409 83.2793C111.456 83.253 111.496 83.2153 111.524 83.1695C111.57 83.0963 111.585 83.0082 111.566 82.9242C111.547 82.8401 111.496 82.7667 111.424 82.7195C110.864 82.3795 110.284 82.0495 109.704 81.7195C109.627 81.6807 109.538 81.6736 109.456 81.6998C109.373 81.7259 109.305 81.7833 109.264 81.8595C109.226 81.9351 109.219 82.0229 109.245 82.1035C109.272 82.1841 109.329 82.251 109.404 82.2895C109.974 82.5895 110.534 82.9095 111.084 83.2895C111.11 83.3133 111.14 83.3318 111.172 83.3438C111.205 83.3558 111.24 83.3612 111.274 83.3595L111.254 83.3195ZM107.794 81.5195C107.857 81.521 107.92 81.5038 107.973 81.47C108.026 81.4362 108.069 81.3873 108.094 81.3295C108.111 81.2908 108.119 81.2492 108.12 81.2071C108.12 81.165 108.112 81.1233 108.096 81.0843C108.081 81.0452 108.057 81.0097 108.028 80.9797C107.998 80.9498 107.963 80.9259 107.924 80.9095C107.324 80.6495 106.704 80.4095 106.084 80.1895C106.044 80.1754 106.002 80.1694 105.959 80.1718C105.917 80.1742 105.876 80.185 105.837 80.2036C105.799 80.2223 105.765 80.2483 105.737 80.2802C105.709 80.3121 105.688 80.3493 105.674 80.3895C105.66 80.4296 105.654 80.472 105.657 80.5144C105.659 80.5568 105.67 80.5983 105.688 80.6364C105.707 80.6746 105.733 80.7087 105.765 80.7367C105.797 80.7647 105.834 80.786 105.874 80.7995C106.474 81.0095 107.084 81.2495 107.664 81.4995C107.708 81.532 107.76 81.5527 107.814 81.5595L107.794 81.5195ZM82.8943 80.7195H82.9643L84.8643 80.3195C84.9067 80.3123 84.9471 80.2967 84.9833 80.2736C85.0195 80.2504 85.0507 80.2202 85.0749 80.1847C85.0992 80.1493 85.1161 80.1093 85.1245 80.0671C85.133 80.025 85.133 79.9816 85.1243 79.9395C85.1051 79.8571 85.055 79.7851 84.9842 79.7386C84.9135 79.6921 84.8276 79.6745 84.7443 79.6895C84.1043 79.8095 83.4643 79.9495 82.8243 80.0895C82.7419 80.1087 82.6699 80.1589 82.6234 80.2296C82.5769 80.3003 82.5593 80.3862 82.5743 80.4695C82.5864 80.5508 82.6275 80.6249 82.69 80.6782C82.7525 80.7315 82.8321 80.7604 82.9143 80.7595L82.8943 80.7195ZM104.114 80.2395C104.187 80.2418 104.258 80.2193 104.316 80.1757C104.375 80.1321 104.416 80.0699 104.434 79.9995C104.445 79.9588 104.447 79.9164 104.441 79.8748C104.435 79.8331 104.421 79.7931 104.4 79.7569C104.379 79.7206 104.35 79.689 104.317 79.6637C104.283 79.6384 104.245 79.62 104.204 79.6095C103.574 79.4395 102.934 79.2795 102.284 79.1495C102.2 79.1348 102.112 79.1537 102.041 79.2023C101.97 79.2509 101.921 79.3252 101.904 79.4095C101.889 79.4929 101.907 79.5787 101.953 79.6495C102 79.7202 102.072 79.7703 102.154 79.7895C102.794 79.9095 103.424 80.0595 104.034 80.2295L104.114 80.2395ZM86.7143 79.9595H86.7743C87.4409 79.8462 88.081 79.7462 88.6943 79.6595C88.7785 79.6448 88.8535 79.598 88.9039 79.529C88.9543 79.46 88.9759 79.3741 88.9643 79.2895C88.9594 79.2477 88.9462 79.2073 88.9252 79.1708C88.9042 79.1343 88.876 79.1024 88.8423 79.0771C88.8086 79.0519 88.7701 79.0337 88.7292 79.0238C88.6883 79.0139 88.6458 79.0125 88.6043 79.0195C87.9543 79.1095 87.3143 79.2095 86.6643 79.3195C86.5808 79.3342 86.5065 79.3814 86.4577 79.4507C86.409 79.5201 86.3897 79.606 86.4043 79.6895C86.4042 79.732 86.4128 79.774 86.4297 79.813C86.4465 79.8519 86.4711 79.887 86.502 79.9161C86.533 79.9452 86.5696 79.9676 86.6095 79.9819C86.6495 79.9963 86.6919 80.0023 86.7343 79.9995L86.7143 79.9595ZM100.304 79.4695C100.382 79.4681 100.457 79.4392 100.515 79.3879C100.574 79.3367 100.613 79.2664 100.624 79.1895C100.63 79.1475 100.627 79.1047 100.616 79.0637C100.605 79.0228 100.586 78.9844 100.56 78.9509C100.534 78.9174 100.501 78.8894 100.464 78.8686C100.427 78.8477 100.386 78.8345 100.344 78.8295C99.7043 78.7395 99.0443 78.6695 98.3443 78.6195C98.3027 78.6154 98.2609 78.6197 98.221 78.6322C98.1812 78.6447 98.1443 78.6651 98.1126 78.6922C98.0808 78.7192 98.0548 78.7524 98.0362 78.7898C98.0176 78.8271 98.0068 78.8679 98.0043 78.9095C98.0002 78.9516 98.0044 78.994 98.0168 79.0345C98.0291 79.0749 98.0494 79.1124 98.0763 79.145C98.1033 79.1775 98.1365 79.2044 98.1739 79.2241C98.2113 79.2437 98.2522 79.2558 98.2943 79.2595C98.9443 79.3095 99.5943 79.3795 100.214 79.4695H100.304ZM90.5743 79.4195C91.2143 79.3495 91.8643 79.2995 92.5043 79.2495C92.5464 79.247 92.5875 79.2362 92.6253 79.2177C92.6632 79.1992 92.697 79.1734 92.7249 79.1418C92.7528 79.1103 92.7741 79.0735 92.7878 79.0336C92.8014 78.9937 92.807 78.9516 92.8043 78.9095C92.8018 78.8666 92.7907 78.8245 92.7716 78.786C92.7525 78.7474 92.7258 78.7131 92.6931 78.6851C92.6604 78.6571 92.6224 78.636 92.5814 78.623C92.5404 78.61 92.4971 78.6054 92.4543 78.6095C91.8043 78.6095 91.1543 78.7095 90.4543 78.7795C90.4122 78.7833 90.3712 78.7953 90.3338 78.815C90.2964 78.8347 90.2633 78.8616 90.2364 78.8941C90.2094 78.9266 90.1892 78.9642 90.1768 79.0046C90.1644 79.045 90.1601 79.0875 90.1643 79.1295C90.1592 79.1834 90.1679 79.2378 90.1895 79.2874C90.2112 79.3371 90.2451 79.3804 90.2881 79.4134C90.331 79.4464 90.3817 79.4679 90.4352 79.476C90.4888 79.484 90.5435 79.4784 90.5943 79.4595L90.5743 79.4195ZM96.4143 79.1595C96.4984 79.1597 96.5795 79.1277 96.6408 79.07C96.7022 79.0124 96.7392 78.9335 96.7443 78.8495C96.7456 78.8067 96.7383 78.764 96.7229 78.724C96.7074 78.684 96.684 78.6475 96.6541 78.6168C96.6243 78.586 96.5886 78.5615 96.5491 78.5448C96.5096 78.5281 96.4672 78.5195 96.4243 78.5195C95.7743 78.5195 95.1143 78.5195 94.4243 78.5195C94.3814 78.5195 94.339 78.5281 94.2995 78.5448C94.26 78.5615 94.2242 78.586 94.1944 78.6168C94.1645 78.6475 94.1412 78.684 94.1257 78.724C94.1102 78.764 94.1029 78.8067 94.1043 78.8495C94.1069 78.9326 94.1417 79.0115 94.2014 79.0694C94.2612 79.1272 94.3411 79.1596 94.4243 79.1595H96.3743H96.4143Z" fill="#999999"/>
<path d="M46.454 27.13L43.6341 28.35L32.3641 20.49L29.3641 22.15C26.9541 23.59 24.6141 23.69 23.4941 23.05L23.264 23.16C21.524 23.92 20.494 23.24 20.144 22.42C19.794 21.6 19.9941 20.42 21.7341 19.64L21.9641 19.54C22.174 18.54 23.0841 16.86 26.6341 15.87L29.9041 14.82L31.9041 1.22998L34.7241 0L36.9141 12.59L44.9741 9.82999L46.1941 6.59998L48.4341 5.76999L48.5941 8.76999L49.394 8.69998L50.1241 10.37L49.524 10.96L51.644 13.16L49.5041 14.23L46.3241 12.91L38.7941 16.91L46.454 27.13ZM46.2441 12.18L49.4441 13.51L50.4441 12.99L48.5041 10.99L49.2341 10.25L48.894 9.45999L47.894 9.54999L47.7441 6.75L46.6541 7.14999L45.4341 10.39L36.3141 13.5L34.144 0.98999L32.454 1.72L30.5041 15.36L26.8141 16.54C23.3741 17.49 22.6941 19.03 22.5941 19.86V20.07L22.394 20.14C22.267 20.1762 22.1432 20.223 22.024 20.28C20.954 20.74 20.4741 21.47 20.7841 22.17C21.0941 22.87 21.944 23.03 23.014 22.56C23.1344 22.5114 23.2514 22.4546 23.3641 22.39L23.5541 22.28L23.7341 22.41C24.4641 22.95 26.5941 23.05 29.0541 21.59L32.4141 19.71L43.7141 27.6L45.4041 26.87L37.7441 16.73L46.2441 12.18Z" fill="#999999"/>
<path d="M143.234 111.06C143.288 111.06 143.342 111.047 143.389 111.021C143.437 110.994 143.476 110.956 143.504 110.91C143.864 110.363 144.198 109.813 144.504 109.26C144.55 109.186 144.565 109.098 144.546 109.014C144.527 108.93 144.476 108.857 144.404 108.81C144.33 108.765 144.241 108.752 144.157 108.772C144.073 108.793 144 108.846 143.954 108.92C143.614 109.47 143.274 110.01 142.954 110.56C142.93 110.595 142.913 110.635 142.905 110.676C142.896 110.718 142.896 110.762 142.904 110.804C142.913 110.845 142.929 110.885 142.953 110.921C142.977 110.956 143.008 110.986 143.044 111.01C143.103 111.041 143.168 111.059 143.234 111.06ZM145.234 107.74C145.291 107.739 145.346 107.724 145.395 107.696C145.444 107.668 145.485 107.628 145.514 107.58C145.834 107.01 146.154 106.44 146.514 105.87C146.555 105.795 146.565 105.707 146.543 105.625C146.52 105.544 146.467 105.473 146.394 105.43C146.318 105.39 146.23 105.381 146.148 105.406C146.066 105.43 145.996 105.485 145.954 105.56C145.644 106.13 145.324 106.69 145.004 107.25C144.96 107.324 144.946 107.413 144.967 107.497C144.988 107.581 145.041 107.654 145.114 107.7C145.166 107.728 145.225 107.742 145.284 107.74H145.234ZM147.094 104.32C147.154 104.319 147.213 104.302 147.264 104.27C147.315 104.238 147.357 104.193 147.384 104.14C147.684 103.56 147.974 102.97 148.254 102.39C148.273 102.351 148.284 102.31 148.286 102.268C148.289 102.226 148.283 102.183 148.269 102.143C148.255 102.103 148.233 102.066 148.205 102.035C148.177 102.003 148.143 101.978 148.104 101.96C148.066 101.941 148.025 101.93 147.983 101.927C147.94 101.925 147.898 101.931 147.858 101.945C147.818 101.959 147.781 101.98 147.75 102.009C147.718 102.037 147.692 102.071 147.674 102.11C147.394 102.69 147.104 103.27 146.804 103.85C146.786 103.888 146.775 103.929 146.772 103.971C146.77 104.013 146.775 104.056 146.789 104.096C146.803 104.136 146.825 104.173 146.853 104.204C146.882 104.236 146.916 104.261 146.954 104.28C146.981 104.3 147.012 104.314 147.045 104.321C147.078 104.327 147.112 104.327 147.144 104.32H147.094ZM148.784 100.8C148.847 100.799 148.908 100.78 148.961 100.747C149.014 100.713 149.057 100.666 149.084 100.61L149.864 98.8195C149.897 98.7386 149.897 98.6479 149.863 98.5673C149.829 98.4867 149.765 98.4228 149.684 98.3895C149.605 98.3595 149.516 98.3615 149.438 98.3951C149.36 98.4286 149.298 98.4911 149.264 98.5695C149.014 99.1595 148.754 99.7495 148.494 100.35C148.476 100.387 148.466 100.429 148.464 100.471C148.462 100.513 148.469 100.555 148.484 100.594C148.499 100.633 148.522 100.669 148.551 100.699C148.58 100.729 148.615 100.753 148.654 100.77C148.71 100.797 148.773 100.808 148.834 100.8H148.784ZM150.294 97.2095C150.358 97.2089 150.421 97.1896 150.474 97.1541C150.527 97.1186 150.569 97.0684 150.594 97.0095C150.834 96.3895 151.064 95.7795 151.294 95.1695C151.308 95.1295 151.314 95.0871 151.312 95.0447C151.31 95.0023 151.299 94.9608 151.28 94.9226C151.262 94.8845 151.236 94.8504 151.204 94.8224C151.172 94.7944 151.135 94.773 151.094 94.7595C151.015 94.7331 150.928 94.738 150.852 94.7733C150.775 94.8086 150.716 94.8716 150.684 94.9495C150.464 95.5595 150.234 96.1595 149.994 96.7695C149.964 96.8492 149.966 96.9375 150 97.0157C150.033 97.094 150.096 97.1563 150.174 97.1895L150.294 97.2095ZM151.634 93.5495C151.701 93.5487 151.766 93.5271 151.82 93.4876C151.873 93.4482 151.913 93.3929 151.934 93.3295C152.154 92.7095 152.354 92.0895 152.544 91.4695C152.57 91.3873 152.562 91.2984 152.523 91.2218C152.483 91.1452 152.416 91.087 152.334 91.0595C152.252 91.0342 152.163 91.0419 152.087 91.0812C152.01 91.1204 151.952 91.188 151.924 91.2695C151.734 91.8895 151.534 92.4995 151.324 93.1195C151.299 93.2018 151.307 93.2906 151.346 93.3672C151.385 93.4438 151.453 93.5021 151.534 93.5295L151.634 93.5495ZM152.794 89.8295C152.865 89.8279 152.933 89.8038 152.989 89.7606C153.045 89.7174 153.085 89.6574 153.104 89.5895C153.284 88.9595 153.464 88.3295 153.624 87.7095C153.646 87.626 153.634 87.5374 153.591 87.4626C153.548 87.3879 153.477 87.3329 153.394 87.3095C153.354 87.299 153.311 87.2966 153.27 87.3025C153.228 87.3083 153.188 87.3223 153.152 87.3437C153.115 87.3651 153.084 87.3934 153.058 87.427C153.033 87.4606 153.015 87.4988 153.004 87.5395C152.834 88.1595 152.664 88.7895 152.484 89.4095C152.472 89.4502 152.468 89.493 152.473 89.5352C152.477 89.5775 152.49 89.6184 152.51 89.6557C152.531 89.6929 152.559 89.7257 152.592 89.7521C152.625 89.7785 152.663 89.798 152.704 89.8095L152.794 89.8295ZM153.794 86.0595C153.866 86.0573 153.935 86.0317 153.991 85.9866C154.047 85.9414 154.087 85.8793 154.104 85.8095C154.254 85.1695 154.404 84.5295 154.534 83.8995C154.545 83.8588 154.546 83.8163 154.54 83.7748C154.533 83.7333 154.518 83.6936 154.496 83.658C154.473 83.6225 154.444 83.5919 154.409 83.5681C154.375 83.5443 154.336 83.5277 154.294 83.5195C154.253 83.5092 154.21 83.5072 154.168 83.5137C154.126 83.5202 154.085 83.535 154.049 83.5574C154.012 83.5798 153.981 83.6092 153.956 83.6439C153.931 83.6786 153.914 83.7179 153.904 83.7595C153.774 84.3895 153.624 85.0195 153.474 85.6595C153.456 85.743 153.471 85.8302 153.516 85.9029C153.56 85.9757 153.632 86.0282 153.714 86.0495L153.794 86.0595ZM154.614 82.2395C154.69 82.2409 154.763 82.2155 154.822 82.1679C154.88 82.1204 154.92 82.0536 154.934 81.9795C155.054 81.3395 155.174 80.6995 155.284 80.0595C155.299 79.976 155.28 79.8901 155.231 79.8207C155.182 79.7514 155.108 79.7042 155.024 79.6895C154.982 79.6809 154.939 79.6808 154.897 79.6893C154.855 79.6977 154.815 79.7146 154.779 79.7389C154.744 79.7631 154.713 79.7943 154.69 79.8305C154.667 79.8667 154.651 79.9072 154.644 79.9495C154.534 80.5795 154.424 81.2195 154.294 81.8595C154.286 81.9016 154.285 81.945 154.294 81.9872C154.302 82.0293 154.319 82.0693 154.344 82.1047C154.368 82.1402 154.399 82.1704 154.435 82.1936C154.471 82.2167 154.512 82.2324 154.554 82.2395H154.614ZM155.274 78.3995C155.352 78.4027 155.427 78.3767 155.487 78.3267C155.546 78.2767 155.584 78.2064 155.594 78.1295C155.694 77.4795 155.784 76.8295 155.864 76.1895C155.87 76.1475 155.867 76.1047 155.856 76.0637C155.845 76.0228 155.826 75.9844 155.8 75.9509C155.774 75.9174 155.741 75.8894 155.704 75.8686C155.667 75.8477 155.626 75.8345 155.584 75.8295C155.542 75.8225 155.499 75.8242 155.457 75.8348C155.416 75.8453 155.377 75.8643 155.343 75.8906C155.309 75.9169 155.281 75.9499 155.261 75.9876C155.24 76.0253 155.228 76.0668 155.224 76.1095C155.144 76.7362 155.054 77.3762 154.954 78.0295C154.943 78.1142 154.964 78.2 155.015 78.269C155.065 78.338 155.14 78.3848 155.224 78.3995H155.274ZM155.764 74.5295C155.845 74.5323 155.923 74.5036 155.983 74.4494C156.043 74.3953 156.079 74.32 156.084 74.2395C156.154 73.5895 156.224 72.9395 156.274 72.2995C156.28 72.2136 156.252 72.1289 156.196 72.0635C156.139 71.9981 156.06 71.9572 155.974 71.9495C155.932 71.9439 155.89 71.9471 155.85 71.959C155.809 71.9709 155.772 71.9912 155.74 72.0186C155.707 72.046 155.681 72.0798 155.663 72.1178C155.645 72.1559 155.635 72.1974 155.634 72.2395C155.574 72.8795 155.514 73.5295 155.444 74.1795C155.44 74.2216 155.444 74.264 155.457 74.3045C155.469 74.3449 155.489 74.3824 155.516 74.415C155.543 74.4475 155.576 74.4744 155.614 74.494C155.651 74.5137 155.692 74.5258 155.734 74.5295H155.764ZM156.094 70.6495C156.176 70.6497 156.254 70.6187 156.314 70.563C156.373 70.5072 156.409 70.4309 156.414 70.3495C156.414 69.6795 156.494 69.0295 156.514 68.3495C156.517 68.3067 156.511 68.2637 156.497 68.2232C156.483 68.1827 156.46 68.1455 156.431 68.1138C156.402 68.0821 156.367 68.0565 156.328 68.0386C156.289 68.0207 156.247 68.0108 156.204 68.0095C156.12 68.0134 156.04 68.0465 155.978 68.1031C155.916 68.1597 155.876 68.2363 155.864 68.3195C155.864 68.9595 155.864 69.6095 155.774 70.2595C155.769 70.3455 155.797 70.4302 155.853 70.4956C155.909 70.561 155.989 70.6019 156.074 70.6095L156.094 70.6495ZM156.244 66.7495C156.329 66.7495 156.411 66.7158 156.471 66.6558C156.531 66.5958 156.564 66.5144 156.564 66.4295C156.564 65.9695 156.564 65.5195 156.564 65.0695V64.4795C156.564 64.3947 156.531 64.3133 156.471 64.2533C156.411 64.1932 156.329 64.1595 156.244 64.1595C156.159 64.1595 156.078 64.1932 156.018 64.2533C155.958 64.3133 155.924 64.3947 155.924 64.4795V65.0695C155.924 65.5195 155.924 65.9695 155.924 66.4195C155.923 66.4624 155.93 66.5051 155.946 66.5451C155.961 66.585 155.985 66.6215 156.014 66.6523C156.044 66.6831 156.08 66.7076 156.119 66.7243C156.159 66.741 156.201 66.7495 156.244 66.7495ZM156.244 62.8495C156.287 62.8496 156.33 62.841 156.369 62.8242C156.409 62.8075 156.444 62.7831 156.474 62.7523C156.504 62.7215 156.527 62.6851 156.543 62.6451C156.558 62.6051 156.566 62.5624 156.564 62.5195C156.564 61.8495 156.504 61.1995 156.474 60.5195C156.467 60.4337 156.426 60.3543 156.36 60.2983C156.295 60.2422 156.21 60.214 156.124 60.2195C156.082 60.2221 156.041 60.2329 156.003 60.2514C155.965 60.2699 155.932 60.2956 155.904 60.3272C155.876 60.3588 155.854 60.3956 155.841 60.4355C155.827 60.4753 155.822 60.5175 155.824 60.5595C155.824 61.1895 155.894 61.8395 155.914 62.4995C155.91 62.5466 155.915 62.5942 155.931 62.6388C155.947 62.6834 155.973 62.7239 156.006 62.7574C156.04 62.7909 156.08 62.8165 156.125 62.8324C156.17 62.8484 156.217 62.8542 156.264 62.8495H156.244ZM156.014 58.9595C156.056 58.9558 156.097 58.9437 156.135 58.924C156.172 58.9044 156.205 58.8775 156.232 58.845C156.259 58.8124 156.279 58.7749 156.292 58.7345C156.304 58.694 156.308 58.6516 156.304 58.6095C156.244 57.9429 156.174 57.2762 156.094 56.6095C156.091 56.5668 156.078 56.5253 156.058 56.4876C156.038 56.4499 156.01 56.4169 155.976 56.3906C155.942 56.3643 155.903 56.3453 155.861 56.3348C155.82 56.3243 155.777 56.3225 155.734 56.3295C155.65 56.342 155.574 56.3863 155.522 56.4534C155.47 56.5204 155.446 56.605 155.454 56.6895C155.534 57.2995 155.604 57.9495 155.664 58.6195C155.66 58.6688 155.668 58.7182 155.686 58.7641C155.704 58.81 155.733 58.851 155.77 58.8839C155.807 58.9168 155.851 58.9408 155.898 58.9539C155.946 58.967 155.996 58.969 156.044 58.9595H156.014ZM155.534 55.0895C155.618 55.0749 155.692 55.0277 155.741 54.9583C155.79 54.889 155.809 54.8031 155.794 54.7195L155.734 54.3295C155.644 53.8195 155.544 53.3295 155.444 52.7895C155.436 52.7481 155.419 52.7087 155.396 52.6736C155.372 52.6385 155.342 52.6085 155.306 52.5853C155.271 52.562 155.231 52.546 155.19 52.5381C155.148 52.5303 155.106 52.5308 155.064 52.5395C155.022 52.5466 154.982 52.5622 154.946 52.5855C154.91 52.6088 154.88 52.6392 154.856 52.6749C154.833 52.7106 154.817 52.7508 154.81 52.7928C154.802 52.8349 154.804 52.8781 154.814 52.9195C154.914 53.4295 155.004 53.9195 155.094 54.4395L155.164 54.8195C155.169 54.8645 155.183 54.908 155.205 54.947C155.228 54.986 155.259 55.0196 155.296 55.0453C155.334 55.071 155.376 55.0883 155.42 55.0959C155.465 55.1036 155.511 55.1014 155.554 55.0895H155.534ZM154.764 51.2695H154.834C154.875 51.2613 154.915 51.2448 154.949 51.221C154.984 51.1972 155.013 51.1666 155.036 51.131C155.058 51.0955 155.073 51.0558 155.08 51.0142C155.086 50.9727 155.085 50.9303 155.074 50.8895C154.924 50.2495 154.774 49.6195 154.604 48.9795C154.593 48.9386 154.573 48.9004 154.547 48.8671C154.52 48.8338 154.488 48.8061 154.45 48.7857C154.413 48.7652 154.372 48.7523 154.33 48.7478C154.288 48.7433 154.245 48.7473 154.204 48.7595C154.164 48.77 154.125 48.7884 154.092 48.8137C154.058 48.839 154.03 48.8706 154.008 48.9069C153.987 48.9431 153.973 48.9832 153.967 49.0248C153.961 49.0664 153.964 49.1088 153.974 49.1495C154.144 49.7795 154.304 50.3995 154.444 51.0295C154.465 51.1025 154.51 51.1662 154.572 51.2099C154.634 51.2536 154.709 51.2747 154.784 51.2695H154.764ZM153.764 47.5095H153.854C153.895 47.498 153.933 47.4785 153.967 47.4521C154 47.4257 154.028 47.3929 154.048 47.3557C154.069 47.3184 154.081 47.2775 154.086 47.2352C154.09 47.193 154.087 47.1502 154.074 47.1095C153.884 46.4795 153.684 45.8595 153.474 45.2395C153.461 45.1993 153.439 45.1621 153.411 45.1302C153.383 45.0983 153.349 45.0723 153.311 45.0536C153.273 45.035 153.232 45.0242 153.189 45.0218C153.147 45.0194 153.104 45.0254 153.064 45.0395C153.024 45.053 152.987 45.0744 152.955 45.1024C152.923 45.1304 152.897 45.1645 152.878 45.2026C152.86 45.2408 152.849 45.2823 152.847 45.3247C152.844 45.3671 152.85 45.4095 152.864 45.4495C153.074 46.0595 153.264 46.6795 153.454 47.2995C153.478 47.3643 153.522 47.4198 153.579 47.4576C153.637 47.4955 153.705 47.5137 153.774 47.5095H153.764ZM152.514 43.8095C152.55 43.8188 152.588 43.8188 152.624 43.8095C152.704 43.7802 152.768 43.7207 152.804 43.6438C152.84 43.5669 152.843 43.4791 152.814 43.3995C152.584 42.7895 152.344 42.1795 152.084 41.5795C152.069 41.5399 152.046 41.5037 152.016 41.4731C151.987 41.4425 151.951 41.4181 151.912 41.4013C151.873 41.3846 151.831 41.3758 151.788 41.3755C151.746 41.3752 151.704 41.3834 151.664 41.3995C151.625 41.4159 151.59 41.4398 151.561 41.4698C151.531 41.4997 151.508 41.5353 151.492 41.5743C151.476 41.6133 151.468 41.655 151.469 41.6971C151.469 41.7392 151.478 41.7808 151.494 41.8195C151.744 42.4195 151.984 43.0195 152.204 43.6295C152.234 43.6879 152.28 43.7361 152.337 43.7681C152.394 43.8002 152.459 43.8146 152.524 43.8095H152.514ZM151.044 40.2695C151.09 40.279 151.138 40.279 151.184 40.2695C151.262 40.2326 151.321 40.1671 151.351 40.0869C151.381 40.0067 151.379 39.918 151.344 39.8395C151.064 39.2495 150.784 38.6595 150.484 38.0695C150.444 37.9958 150.377 37.9403 150.297 37.9143C150.217 37.8883 150.13 37.8937 150.054 37.9295C149.976 37.9683 149.917 38.0362 149.889 38.1186C149.861 38.2011 149.866 38.2912 149.904 38.3695C150.204 38.9395 150.484 39.5195 150.754 40.1095C150.783 40.1609 150.825 40.2032 150.876 40.2315C150.927 40.2598 150.986 40.273 151.044 40.2695ZM149.284 36.7895C149.333 36.8032 149.385 36.8032 149.434 36.7895C149.472 36.7696 149.506 36.7423 149.533 36.7093C149.56 36.6762 149.58 36.638 149.592 36.597C149.604 36.556 149.608 36.5129 149.603 36.4704C149.599 36.4279 149.585 36.3868 149.564 36.3495C149.244 35.7795 148.914 35.2095 148.564 34.6595C148.544 34.6223 148.516 34.5897 148.482 34.5638C148.448 34.5379 148.409 34.5192 148.368 34.5088C148.327 34.4985 148.284 34.4968 148.242 34.5038C148.2 34.5108 148.16 34.5264 148.124 34.5495C148.088 34.5711 148.057 34.5997 148.031 34.6335C148.006 34.6673 147.988 34.7058 147.978 34.7467C147.968 34.7876 147.966 34.8301 147.972 34.8717C147.978 34.9134 147.992 34.9534 148.014 34.9895C148.354 35.5395 148.674 36.0995 149.014 36.6695C149.047 36.6972 149.086 36.7177 149.127 36.7298C149.168 36.7418 149.212 36.7452 149.254 36.7395L149.284 36.7895ZM147.284 33.4595C147.343 33.4773 147.406 33.4773 147.464 33.4595C147.5 33.4363 147.531 33.4061 147.555 33.3707C147.579 33.3353 147.596 33.2955 147.604 33.2535C147.613 33.2116 147.613 33.1684 147.604 33.1265C147.595 33.0846 147.579 33.0448 147.554 33.0095C147.184 32.4695 146.814 31.9295 146.424 31.3995C146.373 31.3323 146.297 31.2875 146.213 31.2745C146.129 31.2614 146.044 31.2811 145.974 31.3295C145.907 31.3812 145.862 31.4567 145.849 31.5405C145.836 31.6243 145.856 31.7099 145.904 31.7795C146.284 32.2995 146.654 32.8295 147.014 33.3695C147.078 33.4065 147.152 33.4207 147.224 33.4095L147.284 33.4595ZM103.284 31.2495H103.694C103.736 31.247 103.777 31.2362 103.815 31.2177C103.853 31.1992 103.887 31.1734 103.915 31.1418C103.943 31.1102 103.964 31.0735 103.978 31.0336C103.991 30.9937 103.997 30.9516 103.994 30.9095C103.993 30.867 103.983 30.8252 103.965 30.7867C103.947 30.7482 103.921 30.7137 103.889 30.6856C103.858 30.6575 103.82 30.6362 103.78 30.6231C103.739 30.61 103.697 30.6054 103.654 30.6095C103.272 30.6446 102.887 30.6446 102.504 30.6095C102.275 30.5807 102.048 30.5373 101.824 30.4795C101.741 30.458 101.652 30.47 101.577 30.513C101.503 30.556 101.448 30.6265 101.424 30.7095C101.414 30.7509 101.412 30.794 101.418 30.8361C101.425 30.8783 101.44 30.9187 101.462 30.9551C101.484 30.9914 101.514 31.0229 101.549 31.0477C101.583 31.0725 101.623 31.0901 101.664 31.0995C101.917 31.1696 102.174 31.2198 102.434 31.2495C102.682 31.2446 102.929 31.228 103.174 31.1995L103.284 31.2495ZM105.584 30.8595H105.684C106.334 30.6314 106.939 30.2931 107.474 29.8595C107.534 29.7979 107.568 29.7154 107.568 29.6295C107.568 29.5436 107.534 29.4611 107.474 29.3995C107.444 29.3687 107.409 29.3442 107.369 29.3274C107.33 29.3107 107.287 29.302 107.244 29.302C107.201 29.302 107.159 29.3107 107.119 29.3274C107.08 29.3442 107.044 29.3687 107.014 29.3995C106.536 29.7812 105.999 30.0818 105.424 30.2895C105.384 30.303 105.347 30.3244 105.315 30.3524C105.283 30.3804 105.257 30.4145 105.238 30.4526C105.22 30.4908 105.209 30.5323 105.207 30.5747C105.204 30.617 105.21 30.6595 105.224 30.6995C105.256 30.7346 105.294 30.7626 105.337 30.7816C105.38 30.8006 105.427 30.8101 105.474 30.8095L105.584 30.8595ZM145.034 30.3195C145.107 30.3204 145.178 30.2956 145.234 30.2495C145.294 30.1879 145.328 30.1054 145.328 30.0195C145.328 29.9336 145.294 29.8511 145.234 29.7895C144.824 29.2795 144.394 28.7895 143.974 28.2895C143.913 28.2297 143.83 28.1962 143.744 28.1962C143.658 28.1962 143.576 28.2297 143.514 28.2895C143.454 28.3511 143.421 28.4336 143.421 28.5195C143.421 28.6054 143.454 28.6879 143.514 28.7495C143.934 29.2295 144.354 29.7495 144.754 30.2295C144.807 30.2574 144.865 30.2712 144.924 30.2695L145.034 30.3195ZM99.9743 30.2695C100.027 30.268 100.079 30.2546 100.125 30.2304C100.172 30.2062 100.213 30.1717 100.244 30.1295C100.29 30.0563 100.305 29.9683 100.286 29.8842C100.267 29.8001 100.216 29.7267 100.144 29.6795C99.6284 29.3369 99.161 28.9266 98.7543 28.4595C98.6944 28.4003 98.6135 28.3671 98.5293 28.3671C98.445 28.3671 98.3642 28.4003 98.3043 28.4595C98.2444 28.5211 98.2109 28.6036 98.2109 28.6895C98.2109 28.7754 98.2444 28.8579 98.3043 28.9195C98.7478 29.4368 99.263 29.8881 99.8343 30.2595C99.8441 30.2635 99.8541 30.2668 99.8643 30.2695H99.9743ZM108.504 28.4195C108.562 28.418 108.618 28.4015 108.667 28.3717C108.716 28.3419 108.756 28.2998 108.784 28.2495C109.114 27.6268 109.328 26.949 109.414 26.2495C109.42 26.2075 109.417 26.1647 109.406 26.1237C109.395 26.0828 109.376 26.0444 109.35 26.0109C109.324 25.9774 109.291 25.9494 109.254 25.9286C109.217 25.9078 109.176 25.8945 109.134 25.8895C109.051 25.8781 108.966 25.9 108.899 25.9506C108.831 26.0011 108.787 26.0762 108.774 26.1595C108.691 26.7666 108.505 27.3551 108.224 27.8995C108.203 27.9368 108.19 27.9779 108.185 28.0204C108.18 28.0629 108.184 28.106 108.196 28.147C108.208 28.188 108.229 28.2262 108.256 28.2592C108.283 28.2923 108.316 28.3196 108.354 28.3395C108.367 28.3503 108.38 28.3603 108.394 28.3695L108.504 28.4195ZM142.454 27.4195C142.54 27.4204 142.622 27.3882 142.684 27.3295C142.744 27.2679 142.778 27.1854 142.778 27.0995C142.778 27.0136 142.744 26.9311 142.684 26.8695C142.224 26.3995 141.754 25.9395 141.284 25.4895C141.223 25.4297 141.14 25.3962 141.054 25.3962C140.968 25.3962 140.886 25.4297 140.824 25.4895C140.765 25.5494 140.732 25.6303 140.732 25.7145C140.732 25.7988 140.765 25.8796 140.824 25.9395C141.284 26.3795 141.744 26.8395 142.194 27.2995C142.24 27.3258 142.292 27.3396 142.344 27.3395L142.454 27.4195ZM97.4543 27.4195C97.5038 27.429 97.5547 27.429 97.6043 27.4195C97.6787 27.3773 97.7345 27.3085 97.7604 27.2269C97.7864 27.1454 97.7806 27.057 97.7443 26.9795C97.4627 26.423 97.2575 25.831 97.1343 25.2195C97.1249 25.1779 97.1073 25.1386 97.0825 25.1039C97.0577 25.0692 97.0262 25.0398 96.9898 25.0174C96.9535 24.995 96.913 24.9802 96.8709 24.9737C96.8287 24.9672 96.7857 24.9691 96.7443 24.9795C96.7028 24.9879 96.6634 25.0044 96.6283 25.028C96.5933 25.0517 96.5633 25.082 96.54 25.1174C96.5168 25.1527 96.5007 25.1923 96.4929 25.2339C96.485 25.2755 96.4855 25.3181 96.4943 25.3595C96.6393 26.021 96.8643 26.6624 97.1643 27.2695C97.2124 27.2997 97.2676 27.3169 97.3243 27.3195L97.4543 27.4195ZM139.644 24.7695C139.69 24.7693 139.735 24.7594 139.776 24.7404C139.818 24.7215 139.854 24.6939 139.884 24.6595C139.944 24.5979 139.978 24.5154 139.978 24.4295C139.978 24.3436 139.944 24.2611 139.884 24.1995L139.284 23.6995L138.354 22.9695C138.285 22.917 138.198 22.8938 138.112 22.9051C138.026 22.9163 137.948 22.961 137.894 23.0295C137.845 23.098 137.823 23.1828 137.835 23.2665C137.846 23.3502 137.889 23.4264 137.954 23.4795L138.874 24.1995L139.464 24.6995C139.482 24.6911 139.499 24.6811 139.514 24.6695L139.644 24.7695ZM109.124 24.6795C109.21 24.6695 109.289 24.6261 109.343 24.5588C109.397 24.4915 109.423 24.4056 109.414 24.3195C109.338 23.6411 109.197 22.9714 108.994 22.3195C108.983 22.2786 108.963 22.2404 108.937 22.2071C108.91 22.1738 108.878 22.1462 108.84 22.1257C108.803 22.1052 108.762 22.0923 108.72 22.0878C108.678 22.0833 108.635 22.0873 108.594 22.0995C108.553 22.1108 108.515 22.1304 108.483 22.157C108.45 22.1836 108.422 22.2166 108.403 22.2541C108.383 22.2916 108.371 22.3327 108.368 22.3749C108.365 22.4171 108.37 22.4595 108.384 22.4995C108.566 23.1043 108.696 23.7231 108.774 24.3495C108.788 24.4037 108.815 24.4535 108.854 24.4938C108.892 24.5342 108.941 24.5637 108.994 24.5795L109.124 24.6795ZM96.6743 23.6795C96.7558 23.6797 96.8343 23.6487 96.8938 23.593C96.9532 23.5372 96.9892 23.4609 96.9943 23.3795C97.0404 22.7646 97.1821 22.1607 97.4143 21.5895C97.4307 21.5508 97.4394 21.5092 97.4398 21.4671C97.4402 21.425 97.4322 21.3833 97.4164 21.3443C97.4006 21.3053 97.3773 21.2697 97.3477 21.2397C97.3182 21.2098 97.2831 21.1859 97.2443 21.1695C97.2056 21.1531 97.1639 21.1444 97.1219 21.144C97.0798 21.1437 97.038 21.1516 96.999 21.1674C96.96 21.1832 96.9245 21.2065 96.8945 21.2361C96.8645 21.2656 96.8407 21.3008 96.8243 21.3395C96.5593 21.976 96.4005 22.6516 96.3543 23.3395C96.3502 23.3824 96.3547 23.4256 96.3677 23.4666C96.3807 23.5076 96.4018 23.5456 96.4298 23.5783C96.4578 23.611 96.4922 23.6377 96.5307 23.6568C96.5693 23.6759 96.6113 23.6871 96.6543 23.6895L96.6743 23.6795ZM136.414 22.2695C136.467 22.2704 136.52 22.2581 136.567 22.2337C136.614 22.2092 136.654 22.1734 136.684 22.1295C136.732 22.0587 136.75 21.9723 136.735 21.8884C136.72 21.8046 136.673 21.7297 136.604 21.6795C136.064 21.3095 135.504 20.9495 134.954 20.6095C134.88 20.5651 134.791 20.5517 134.707 20.5723C134.623 20.5929 134.55 20.6458 134.504 20.7195C134.483 20.7556 134.468 20.7956 134.462 20.8373C134.456 20.879 134.458 20.9215 134.468 20.9624C134.478 21.0033 134.496 21.0417 134.521 21.0756C134.547 21.1094 134.578 21.1379 134.614 21.1595C135.161 21.4995 135.701 21.8495 136.234 22.2095C136.287 22.2473 136.35 22.2682 136.414 22.2695ZM107.914 20.8195C107.957 20.8297 108.002 20.8297 108.044 20.8195C108.123 20.7844 108.185 20.7197 108.217 20.6393C108.249 20.5589 108.248 20.4692 108.214 20.3895C107.964 19.8195 107.674 19.2195 107.344 18.6195C107.324 18.5817 107.297 18.5482 107.264 18.5211C107.231 18.4939 107.193 18.4737 107.152 18.4616C107.111 18.4495 107.068 18.4457 107.025 18.4505C106.983 18.4553 106.942 18.4686 106.904 18.4895C106.83 18.5317 106.775 18.6012 106.75 18.6833C106.726 18.7654 106.735 18.8537 106.774 18.9295C107.094 19.5095 107.384 20.0895 107.624 20.6495C107.648 20.7076 107.688 20.7575 107.739 20.793C107.791 20.8286 107.852 20.8482 107.914 20.8495V20.8195ZM133.044 20.2695C133.104 20.2709 133.162 20.2557 133.213 20.2257C133.265 20.1957 133.306 20.152 133.334 20.0995C133.374 20.0236 133.382 19.9353 133.358 19.8532C133.334 19.7711 133.279 19.7017 133.204 19.6595C132.634 19.3495 132.044 19.0495 131.454 18.7595C131.416 18.7409 131.375 18.7299 131.333 18.7274C131.29 18.7248 131.248 18.7307 131.208 18.7447C131.168 18.7586 131.131 18.7804 131.1 18.8087C131.068 18.837 131.042 18.8713 131.024 18.9095C131.006 18.9476 130.995 18.9889 130.992 19.0312C130.99 19.0735 130.995 19.1159 131.009 19.1559C131.023 19.1959 131.045 19.2327 131.073 19.2642C131.102 19.2957 131.136 19.3214 131.174 19.3395C131.754 19.6195 132.334 19.9195 132.894 20.2295C132.939 20.2567 132.992 20.2706 133.044 20.2695ZM97.9643 20.0195C98.0121 20.0189 98.0593 20.0078 98.1025 19.9871C98.1457 19.9663 98.1838 19.9365 98.2143 19.8995C98.6186 19.4266 99.0748 19.0005 99.5743 18.6295C99.6098 18.6057 99.64 18.5747 99.6629 18.5386C99.6859 18.5025 99.7012 18.4621 99.7077 18.4199C99.7143 18.3776 99.7121 18.3344 99.7011 18.2931C99.6902 18.2517 99.6708 18.213 99.6443 18.1795C99.6204 18.144 99.5895 18.1138 99.5534 18.0909C99.5173 18.0679 99.4769 18.0527 99.4346 18.0461C99.3923 18.0395 99.3492 18.0418 99.3078 18.0527C99.2665 18.0636 99.2278 18.0829 99.1943 18.1095C98.6501 18.5117 98.1535 18.9747 97.7143 19.4895C97.6573 19.5506 97.6257 19.631 97.6257 19.7145C97.6257 19.798 97.6573 19.8785 97.7143 19.9395C97.7584 19.9789 97.8121 20.0061 97.87 20.0183C97.9278 20.0306 97.9879 20.0276 98.0443 20.0095L97.9643 20.0195ZM129.544 18.5695C129.608 18.5665 129.669 18.5464 129.722 18.5111C129.775 18.4759 129.817 18.427 129.844 18.3695C129.861 18.3308 129.869 18.2892 129.87 18.2471C129.87 18.205 129.862 18.1633 129.846 18.1243C129.831 18.0853 129.807 18.0497 129.778 18.0197C129.748 17.9898 129.713 17.9659 129.674 17.9495C129.064 17.6895 128.454 17.4495 127.844 17.2195C127.763 17.1901 127.674 17.1935 127.596 17.229C127.517 17.2645 127.456 17.3293 127.424 17.4095C127.395 17.4918 127.4 17.5821 127.438 17.6608C127.475 17.7395 127.542 17.8001 127.624 17.8295C128.224 18.0495 128.824 18.2895 129.414 18.5395C129.471 18.564 129.534 18.5709 129.594 18.5595L129.544 18.5695ZM101.054 17.6895C101.1 17.7041 101.149 17.7041 101.194 17.6895C101.767 17.4134 102.354 17.1697 102.954 16.9595C102.995 16.946 103.032 16.9247 103.064 16.8967C103.096 16.8687 103.122 16.8346 103.14 16.7964C103.159 16.7583 103.17 16.7168 103.172 16.6744C103.174 16.632 103.168 16.5896 103.154 16.5495C103.141 16.5093 103.119 16.4721 103.091 16.4402C103.063 16.4083 103.029 16.3823 102.991 16.3636C102.953 16.345 102.912 16.3342 102.869 16.3318C102.827 16.3294 102.784 16.3354 102.744 16.3495C102.117 16.5679 101.503 16.8216 100.904 17.1095C100.828 17.15 100.771 17.2187 100.745 17.301C100.718 17.3832 100.725 17.4724 100.764 17.5495C100.801 17.6032 100.853 17.6443 100.914 17.6676C100.975 17.6908 101.041 17.695 101.104 17.6795L101.054 17.6895ZM106.054 17.4195C106.115 17.4233 106.175 17.4056 106.224 17.3695C106.261 17.3481 106.292 17.3194 106.317 17.2853C106.342 17.2512 106.36 17.2123 106.369 17.1711C106.379 17.1299 106.379 17.0872 106.372 17.0457C106.364 17.0041 106.348 16.9646 106.324 16.9295C106.164 16.6695 105.994 16.4195 105.824 16.1495L106.714 15.9695C106.798 15.9549 106.872 15.9077 106.921 15.8383C106.97 15.7689 106.989 15.6831 106.974 15.5995C106.967 15.5572 106.951 15.5167 106.928 15.4805C106.905 15.4443 106.875 15.4131 106.839 15.3889C106.804 15.3646 106.764 15.3477 106.722 15.3393C106.68 15.3308 106.636 15.3309 106.594 15.3395C106.204 15.4095 105.814 15.4895 105.434 15.5795L105.234 15.2995C105.21 15.2644 105.179 15.2344 105.144 15.2113C105.108 15.1882 105.068 15.1725 105.026 15.165C104.984 15.1576 104.941 15.1585 104.9 15.1679C104.858 15.1773 104.819 15.1948 104.784 15.2195C104.749 15.2436 104.719 15.2743 104.696 15.3101C104.673 15.3458 104.657 15.3858 104.65 15.4277C104.642 15.4696 104.643 15.5126 104.653 15.5541C104.662 15.5956 104.68 15.6349 104.704 15.6695L104.754 15.7395H104.674C104.591 15.763 104.519 15.8175 104.475 15.8919C104.43 15.9662 104.416 16.0548 104.434 16.1395C104.46 16.2211 104.515 16.2901 104.589 16.3328C104.663 16.3754 104.751 16.3885 104.834 16.3695L105.144 16.2995C105.374 16.6195 105.584 16.9495 105.784 17.2995C105.816 17.3371 105.856 17.3667 105.901 17.3858C105.946 17.405 105.995 17.4131 106.044 17.4095L106.054 17.4195ZM125.914 17.2095C125.983 17.2125 126.051 17.1925 126.107 17.1526C126.163 17.1128 126.204 17.0554 126.224 16.9895C126.25 16.9073 126.242 16.8184 126.203 16.7418C126.163 16.6652 126.096 16.607 126.014 16.5795C125.394 16.3895 124.754 16.1995 124.124 16.0395C124.084 16.0275 124.041 16.0241 123.999 16.0293C123.957 16.0345 123.916 16.0484 123.879 16.0699C123.843 16.0915 123.811 16.1203 123.786 16.1547C123.761 16.189 123.744 16.2281 123.734 16.2695C123.724 16.3102 123.721 16.3526 123.727 16.3943C123.733 16.4359 123.747 16.476 123.768 16.5122C123.79 16.5484 123.818 16.5801 123.852 16.6053C123.885 16.6306 123.924 16.6491 123.964 16.6595C124.584 16.8195 125.204 17.0095 125.824 17.1995L125.914 17.2095ZM122.154 16.2095C122.229 16.2105 122.301 16.1848 122.358 16.1371C122.414 16.0894 122.452 16.0228 122.464 15.9495C122.473 15.9081 122.474 15.8654 122.466 15.8239C122.458 15.7823 122.442 15.7427 122.419 15.7074C122.395 15.672 122.365 15.6417 122.33 15.618C122.295 15.5944 122.256 15.5779 122.214 15.5695C121.574 15.4295 120.924 15.3095 120.284 15.2095C120.201 15.195 120.115 15.2142 120.045 15.263C119.976 15.3117 119.929 15.386 119.914 15.4695C119.906 15.5118 119.906 15.5553 119.915 15.5974C119.924 15.6396 119.942 15.6793 119.968 15.7141C119.993 15.7489 120.025 15.7781 120.063 15.7997C120.1 15.8212 120.141 15.8348 120.184 15.8395C120.814 15.9495 121.454 16.0695 122.084 16.1995L122.154 16.2095ZM108.584 15.6595C109.214 15.5695 109.864 15.4995 110.504 15.4495C110.59 15.4419 110.669 15.401 110.725 15.3356C110.782 15.2702 110.81 15.1855 110.804 15.0995C110.801 15.0574 110.788 15.0165 110.769 14.9791C110.749 14.9417 110.722 14.9086 110.69 14.8816C110.657 14.8546 110.62 14.8344 110.579 14.822C110.539 14.8097 110.496 14.8054 110.454 14.8095C109.804 14.8095 109.144 14.9295 108.454 15.0195C108.412 15.0244 108.372 15.0377 108.336 15.0587C108.299 15.0796 108.267 15.1078 108.242 15.1415C108.217 15.1752 108.198 15.2136 108.189 15.2546C108.179 15.2955 108.177 15.338 108.184 15.3795C108.188 15.4281 108.203 15.4751 108.227 15.5172C108.252 15.5592 108.285 15.5951 108.326 15.6221C108.366 15.6491 108.413 15.6665 108.461 15.673C108.509 15.6795 108.558 15.6749 108.604 15.6595H108.584ZM118.304 15.5795C118.384 15.5799 118.461 15.5503 118.521 15.4966C118.58 15.443 118.617 15.3691 118.624 15.2895C118.633 15.2061 118.608 15.1228 118.556 15.0573C118.503 14.9919 118.427 14.9496 118.344 14.9395C117.694 14.8595 117.034 14.7995 116.344 14.7595C116.302 14.7568 116.26 14.7624 116.22 14.7761C116.18 14.7897 116.144 14.8111 116.112 14.8389C116.08 14.8668 116.055 14.9006 116.036 14.9385C116.018 14.9763 116.007 15.0175 116.004 15.0595C116 15.1019 116.005 15.1446 116.018 15.1851C116.031 15.2255 116.052 15.2628 116.08 15.2947C116.108 15.3266 116.143 15.3524 116.181 15.3704C116.22 15.3884 116.262 15.3984 116.304 15.3995C116.944 15.4495 117.594 15.4995 118.224 15.5795H118.304ZM112.464 15.3395C113.114 15.3395 113.754 15.3395 114.404 15.3395C114.446 15.3409 114.487 15.3339 114.526 15.3189C114.565 15.3039 114.6 15.2813 114.63 15.2523C114.66 15.2234 114.684 15.1888 114.7 15.1505C114.716 15.1122 114.724 15.0711 114.724 15.0295C114.726 14.9875 114.719 14.9456 114.704 14.9063C114.689 14.8669 114.666 14.8309 114.638 14.8003C114.609 14.7696 114.574 14.7449 114.536 14.7277C114.498 14.7104 114.456 14.7008 114.414 14.6995C113.754 14.6995 113.104 14.6995 112.414 14.6995C112.371 14.7008 112.329 14.7107 112.29 14.7286C112.251 14.7465 112.216 14.7721 112.187 14.8038C112.158 14.8355 112.136 14.8727 112.122 14.9132C112.108 14.9537 112.102 14.9967 112.104 15.0395C112.106 15.0854 112.118 15.1303 112.139 15.1712C112.16 15.2121 112.19 15.248 112.226 15.2764C112.262 15.3049 112.303 15.3253 112.348 15.3362C112.393 15.347 112.439 15.3482 112.484 15.3395H112.464ZM103.814 14.2295C103.887 14.2304 103.958 14.2056 104.014 14.1595C104.073 14.0996 104.107 14.0188 104.107 13.9345C104.107 13.8503 104.073 13.7694 104.014 13.7095C103.614 13.1895 103.194 12.7095 102.774 12.1795C102.714 12.1203 102.634 12.0871 102.549 12.0871C102.465 12.0871 102.384 12.1203 102.324 12.1795C102.264 12.2411 102.231 12.3237 102.231 12.4095C102.231 12.4954 102.264 12.5779 102.324 12.6395C102.734 13.1195 103.154 13.6395 103.544 14.1295C103.576 14.1764 103.619 14.2141 103.67 14.2387C103.721 14.2633 103.778 14.2739 103.834 14.2695L103.814 14.2295ZM101.274 11.2295C101.315 11.2297 101.356 11.2219 101.393 11.2065C101.431 11.191 101.465 11.1683 101.494 11.1395C101.525 11.1106 101.549 11.0757 101.566 11.037C101.582 10.9983 101.591 10.9566 101.591 10.9145C101.591 10.8724 101.582 10.8308 101.566 10.7921C101.549 10.7534 101.525 10.7185 101.494 10.6895C101.044 10.2095 100.574 9.74954 100.094 9.30954C100.065 9.27898 100.03 9.25464 99.9917 9.23801C99.953 9.22137 99.9114 9.21277 99.8693 9.21277C99.8272 9.21277 99.7855 9.22137 99.7468 9.23801C99.7081 9.25464 99.6732 9.27898 99.6443 9.30954C99.6134 9.33938 99.5889 9.3751 99.5722 9.41461C99.5554 9.45412 99.5468 9.4966 99.5468 9.53952C99.5468 9.58244 99.5554 9.62492 99.5722 9.66443C99.5889 9.70394 99.6134 9.73969 99.6443 9.76953C100.114 10.1995 100.574 10.6595 101.024 11.1195C101.051 11.1674 101.09 11.2069 101.138 11.2335C101.185 11.26 101.24 11.2725 101.294 11.2695L101.274 11.2295ZM98.4243 8.57953C98.5188 8.57713 98.6086 8.53763 98.6743 8.46954C98.7341 8.40795 98.7676 8.32543 98.7676 8.23953C98.7676 8.15364 98.7341 8.07112 98.6743 8.00952C98.1643 7.58952 97.6743 7.18954 97.1143 6.80954C97.0796 6.78483 97.0404 6.76727 96.9989 6.7579C96.9573 6.74854 96.9144 6.74756 96.8725 6.755C96.8306 6.76245 96.7906 6.7782 96.7548 6.8013C96.7191 6.8244 96.6883 6.85438 96.6643 6.88953C96.6391 6.92357 96.6209 6.96228 96.6107 7.00342C96.6006 7.04455 96.5987 7.08729 96.6053 7.12915C96.6118 7.17101 96.6265 7.21117 96.6486 7.24728C96.6708 7.2834 96.6999 7.31476 96.7343 7.33954C97.2543 7.71287 97.7642 8.10285 98.2642 8.50952C98.3095 8.5661 98.3733 8.60504 98.4443 8.61954L98.4243 8.57953ZM95.2543 6.31952C95.3083 6.31933 95.3614 6.30549 95.4086 6.27927C95.4558 6.25304 95.4956 6.21528 95.5243 6.16953C95.5696 6.0963 95.5846 6.00824 95.5659 5.92416C95.5472 5.84008 95.4964 5.76667 95.4243 5.71954C94.8643 5.37954 94.2843 5.04954 93.7043 4.71954C93.6272 4.6807 93.538 4.6736 93.4557 4.69977C93.3735 4.72594 93.3047 4.78328 93.2642 4.85953C93.2259 4.93513 93.2191 5.02286 93.2453 5.10349C93.2716 5.18411 93.3287 5.25102 93.4043 5.28952C93.9743 5.58952 94.5343 5.90952 95.0843 6.28952C95.1096 6.3133 95.1396 6.33176 95.1722 6.34378C95.2048 6.3558 95.2395 6.36116 95.2743 6.35953L95.2543 6.31952ZM91.7943 4.51953C91.8575 4.52102 91.9197 4.50378 91.9731 4.46997C92.0264 4.43616 92.0686 4.38728 92.0943 4.32953C92.1107 4.2908 92.1194 4.24921 92.1198 4.20712C92.1201 4.16504 92.1122 4.12327 92.0964 4.08426C92.0806 4.04524 92.0573 4.00972 92.0277 3.97974C91.9982 3.94975 91.9631 3.92592 91.9243 3.90955C91.3243 3.64955 90.7043 3.40954 90.0843 3.18954C90.0442 3.1754 90.0018 3.16936 89.9594 3.17178C89.9171 3.17421 89.8755 3.18503 89.8374 3.20364C89.7992 3.22226 89.7652 3.24827 89.7372 3.28018C89.7092 3.31209 89.6878 3.34927 89.6743 3.38953C89.6601 3.42956 89.6541 3.47202 89.6565 3.5144C89.659 3.55679 89.6698 3.59825 89.6884 3.63641C89.707 3.67457 89.733 3.70866 89.7649 3.73666C89.7968 3.76467 89.834 3.78603 89.8743 3.79953C90.4743 4.00953 91.0843 4.24954 91.6643 4.49954C91.7083 4.53204 91.76 4.5527 91.8143 4.55954L91.7943 4.51953ZM66.8943 3.71954H66.9643L68.8643 3.31952C68.9067 3.31234 68.9471 3.29672 68.9833 3.27356C69.0195 3.2504 69.0507 3.22019 69.0749 3.18472C69.0992 3.14926 69.1161 3.10926 69.1245 3.06714C69.133 3.02501 69.133 2.98163 69.1243 2.93954C69.1051 2.85708 69.055 2.78515 68.9842 2.73862C68.9135 2.69209 68.8276 2.67452 68.7443 2.68954C68.1043 2.80954 67.4643 2.94954 66.8243 3.08954C66.7419 3.10872 66.6699 3.15886 66.6234 3.22958C66.5769 3.30031 66.5593 3.38623 66.5743 3.46954C66.5864 3.5508 66.6275 3.62491 66.69 3.67822C66.7525 3.73153 66.8321 3.76041 66.9143 3.75952L66.8943 3.71954ZM88.1143 3.23953C88.187 3.24183 88.2582 3.21931 88.3164 3.17569C88.3745 3.13207 88.4162 3.06995 88.4343 2.99954C88.4448 2.95883 88.4472 2.91642 88.4413 2.87479C88.4354 2.83315 88.4215 2.79309 88.4001 2.75687C88.3788 2.72065 88.3505 2.68898 88.3169 2.6637C88.2833 2.63842 88.245 2.62001 88.2043 2.60953C87.5743 2.43953 86.9343 2.27954 86.2843 2.14954C86.1995 2.13481 86.1124 2.15374 86.0415 2.2023C85.9705 2.25086 85.9212 2.32524 85.9043 2.40955C85.8892 2.49286 85.9068 2.57875 85.9533 2.64948C85.9999 2.7202 86.0718 2.77034 86.1543 2.78952C86.7943 2.90952 87.4243 3.05952 88.0343 3.22952L88.1143 3.23953ZM70.7143 2.95953H70.7743C71.4409 2.8462 72.081 2.74621 72.6943 2.65955C72.7785 2.64481 72.8535 2.598 72.9039 2.52899C72.9543 2.45999 72.9759 2.37415 72.9643 2.28952C72.9594 2.24769 72.9462 2.20729 72.9252 2.17078C72.9042 2.13426 72.876 2.10238 72.8423 2.07712C72.8086 2.05185 72.7701 2.03374 72.7292 2.02383C72.6883 2.01393 72.6458 2.01246 72.6043 2.01953C71.9543 2.10953 71.3143 2.20952 70.6643 2.31952C70.5808 2.33416 70.5065 2.38137 70.4577 2.45074C70.409 2.52012 70.3897 2.60601 70.4043 2.68954C70.4042 2.73199 70.4128 2.77398 70.4297 2.81296C70.4465 2.85193 70.4711 2.88704 70.502 2.91611C70.533 2.94517 70.5696 2.96759 70.6095 2.98193C70.6495 2.99628 70.6919 3.00228 70.7343 2.99954L70.7143 2.95953ZM84.3043 2.46954C84.3821 2.46808 84.4569 2.43917 84.5154 2.38794C84.574 2.33671 84.6125 2.26645 84.6243 2.18954C84.6299 2.14747 84.627 2.10469 84.6159 2.06372C84.6048 2.02275 84.5857 1.9844 84.5597 1.9509C84.5336 1.91739 84.5011 1.8894 84.4641 1.86856C84.4272 1.84772 84.3864 1.83446 84.3443 1.82953C83.7043 1.73953 83.0443 1.66954 82.3443 1.61954C82.3027 1.61542 82.2609 1.61972 82.221 1.6322C82.1812 1.64468 82.1443 1.66509 82.1126 1.69217C82.0808 1.71925 82.0548 1.75244 82.0362 1.78979C82.0176 1.82715 82.0068 1.86789 82.0043 1.90955C82.0002 1.9516 82.0044 1.99405 82.0168 2.03445C82.0291 2.07486 82.0494 2.11242 82.0763 2.14496C82.1033 2.1775 82.1365 2.2044 82.1739 2.22406C82.2113 2.24372 82.2522 2.25576 82.2943 2.25952C82.9443 2.30952 83.5943 2.37954 84.2143 2.46954H84.3043ZM74.5743 2.41953C75.2143 2.34953 75.8643 2.29954 76.5043 2.24954C76.5464 2.247 76.5875 2.23616 76.6253 2.21768C76.6632 2.1992 76.697 2.17344 76.7249 2.14185C76.7528 2.11026 76.7741 2.07346 76.7878 2.0336C76.8014 1.99374 76.807 1.95159 76.8043 1.90955C76.8018 1.86658 76.7907 1.82454 76.7716 1.78598C76.7525 1.74742 76.7258 1.71313 76.6931 1.68512C76.6604 1.65711 76.6224 1.63597 76.5814 1.62299C76.5404 1.61 76.4971 1.60542 76.4543 1.60953C75.8043 1.60953 75.1543 1.70954 74.4543 1.77954C74.4122 1.7833 74.3712 1.79534 74.3338 1.815C74.2964 1.83467 74.2633 1.86156 74.2364 1.8941C74.2094 1.92664 74.1892 1.9642 74.1768 2.00461C74.1644 2.04502 74.1601 2.08746 74.1643 2.12952C74.1592 2.18344 74.1679 2.23779 74.1895 2.28745C74.2112 2.3371 74.2451 2.38045 74.2881 2.41342C74.331 2.4464 74.3817 2.46792 74.4352 2.47598C74.4888 2.48405 74.5435 2.47839 74.5943 2.45953L74.5743 2.41953ZM80.4143 2.15955C80.4984 2.1597 80.5795 2.12766 80.6408 2.07004C80.7022 2.01241 80.7392 1.93353 80.7443 1.84952C80.7456 1.80666 80.7383 1.76398 80.7229 1.724C80.7074 1.68401 80.684 1.64754 80.6541 1.61676C80.6243 1.58598 80.5886 1.5615 80.5491 1.5448C80.5096 1.5281 80.4672 1.51951 80.4243 1.51953C79.7743 1.51953 79.1143 1.51953 78.4243 1.51953C78.3814 1.51951 78.339 1.5281 78.2995 1.5448C78.26 1.5615 78.2242 1.58598 78.1944 1.61676C78.1645 1.64754 78.1412 1.68401 78.1257 1.724C78.1102 1.76398 78.1029 1.80666 78.1043 1.84952C78.1069 1.93264 78.1417 2.0115 78.2014 2.06937C78.2612 2.12723 78.3411 2.15959 78.4243 2.15955H80.3743H80.4143Z" fill="#999999"/>
<path d="M30.4541 76.13L27.6341 77.35L16.3641 69.49L13.3641 71.15C10.9541 72.59 8.61411 72.69 7.49411 72.05L7.26407 72.16C5.52407 72.92 4.49407 72.24 4.14407 71.42C3.79407 70.6 3.9941 69.42 5.7341 68.64L5.96408 68.54C6.17408 67.54 7.08413 65.86 10.6341 64.87L13.9041 63.82L15.9041 50.23L18.7241 49L20.9141 61.59L28.9741 58.83L30.1941 55.6L32.4341 54.77L32.5941 57.77L33.3941 57.7L34.1241 59.37L33.5241 59.96L35.6441 62.16L33.5041 63.23L30.3241 61.91L22.7941 65.91L30.4541 76.13ZM30.2441 61.18L33.4441 62.51L34.4441 61.99L32.5041 59.99L33.2341 59.25L32.8941 58.46L31.8941 58.55L31.7441 55.75L30.6541 56.15L29.4341 59.39L20.3141 62.5L18.1441 49.99L16.4541 50.72L14.5041 64.36L10.8141 65.54C7.37412 66.49 6.69409 68.03 6.59409 68.86V69.07L6.39407 69.14C6.26702 69.1762 6.14326 69.223 6.02408 69.28C4.95408 69.74 4.47409 70.47 4.78409 71.17C5.09409 71.87 5.94407 72.03 7.01407 71.56C7.13447 71.5114 7.25145 71.4546 7.36411 71.39L7.55411 71.28L7.7341 71.41C8.4641 71.95 10.5941 72.05 13.0541 70.59L16.4141 68.71L27.7141 76.6L29.4041 75.87L21.7441 65.73L30.2441 61.18Z" fill="#999999"/>
</g>
<defs>
<filter id="filter0_d_1_298" x="0" y="0" width="176.564" height="196.06" filterUnits="userSpaceOnUse" color-interpolation-filters="sRGB">
<feFlood flood-opacity="0" result="BackgroundImageFix"/>
<feColorMatrix in="SourceAlpha" type="matrix" values="0 0 0 0 0 0 0 0 0 0 0 0 0 0 0 0 0 0 127 0" result="hardAlpha"/>
<feOffset dy="4"/>
<feGaussianBlur stdDeviation="2"/>
<feComposite in2="hardAlpha" operator="out"/>
<feColorMatrix type="matrix" values="0 0 0 0 0 0 0 0 0 0 0 0 0 0 0 0 0 0 0.25 0"/>
<feBlend mode="normal" in2="BackgroundImageFix" result="effect1_dropShadow_1_298"/>
<feBlend mode="normal" in="SourceGraphic" in2="effect1_dropShadow_1_298" result="shape"/>
</filter>
</defs>
</svg>
